<?xml version="1.0" encoding="utf-8"?>
<svg xmlns="http://www.w3.org/2000/svg" xmlns:xlink="http://www.w3.org/1999/xlink" width="520" height="450" viewBox="0 0 2080 1800">
<defs>
  <clipPath id="clip260">
    <rect x="0" y="0" width="2080" height="1800"/>
  </clipPath>
</defs>
<path clip-path="url(#clip260)" d="M0 1800 L2080 1800 L2080 0 L0 0  Z" fill="#ffffff" fill-rule="evenodd" fill-opacity="1"/>
<defs>
  <clipPath id="clip261">
    <rect x="270" y="47" width="1550" height="1550"/>
  </clipPath>
</defs>
<path clip-path="url(#clip260)" d="M270.444 1596.71 L1819.91 1596.71 L1819.91 47.2441 L270.444 47.2441  Z" fill="#ffffff" fill-rule="evenodd" fill-opacity="1"/>
<polyline clip-path="url(#clip260)" style="stroke:#000000; stroke-linecap:round; stroke-linejoin:round; stroke-width:4; stroke-opacity:1; fill:none" points="270.444,1596.71 1819.91,1596.71 "/>
<polyline clip-path="url(#clip260)" style="stroke:#000000; stroke-linecap:round; stroke-linejoin:round; stroke-width:4; stroke-opacity:1; fill:none" points="270.444,47.2441 1819.91,47.2441 "/>
<polyline clip-path="url(#clip260)" style="stroke:#000000; stroke-linecap:round; stroke-linejoin:round; stroke-width:4; stroke-opacity:1; fill:none" points="270.444,1596.71 270.444,1577.82 "/>
<polyline clip-path="url(#clip260)" style="stroke:#000000; stroke-linecap:round; stroke-linejoin:round; stroke-width:4; stroke-opacity:1; fill:none" points="580.338,1596.71 580.338,1577.82 "/>
<polyline clip-path="url(#clip260)" style="stroke:#000000; stroke-linecap:round; stroke-linejoin:round; stroke-width:4; stroke-opacity:1; fill:none" points="890.232,1596.71 890.232,1577.82 "/>
<polyline clip-path="url(#clip260)" style="stroke:#000000; stroke-linecap:round; stroke-linejoin:round; stroke-width:4; stroke-opacity:1; fill:none" points="1200.13,1596.71 1200.13,1577.82 "/>
<polyline clip-path="url(#clip260)" style="stroke:#000000; stroke-linecap:round; stroke-linejoin:round; stroke-width:4; stroke-opacity:1; fill:none" points="1510.02,1596.71 1510.02,1577.82 "/>
<polyline clip-path="url(#clip260)" style="stroke:#000000; stroke-linecap:round; stroke-linejoin:round; stroke-width:4; stroke-opacity:1; fill:none" points="1819.91,1596.71 1819.91,1577.82 "/>
<polyline clip-path="url(#clip260)" style="stroke:#000000; stroke-linecap:round; stroke-linejoin:round; stroke-width:4; stroke-opacity:1; fill:none" points="270.444,47.2441 270.444,66.1417 "/>
<polyline clip-path="url(#clip260)" style="stroke:#000000; stroke-linecap:round; stroke-linejoin:round; stroke-width:4; stroke-opacity:1; fill:none" points="580.338,47.2441 580.338,66.1417 "/>
<polyline clip-path="url(#clip260)" style="stroke:#000000; stroke-linecap:round; stroke-linejoin:round; stroke-width:4; stroke-opacity:1; fill:none" points="890.232,47.2441 890.232,66.1417 "/>
<polyline clip-path="url(#clip260)" style="stroke:#000000; stroke-linecap:round; stroke-linejoin:round; stroke-width:4; stroke-opacity:1; fill:none" points="1200.13,47.2441 1200.13,66.1417 "/>
<polyline clip-path="url(#clip260)" style="stroke:#000000; stroke-linecap:round; stroke-linejoin:round; stroke-width:4; stroke-opacity:1; fill:none" points="1510.02,47.2441 1510.02,66.1417 "/>
<polyline clip-path="url(#clip260)" style="stroke:#000000; stroke-linecap:round; stroke-linejoin:round; stroke-width:4; stroke-opacity:1; fill:none" points="1819.91,47.2441 1819.91,66.1417 "/>
<path clip-path="url(#clip260)" d="M247.829 1625.07 Q244.218 1625.07 242.389 1628.64 Q240.583 1632.18 240.583 1639.31 Q240.583 1646.41 242.389 1649.98 Q244.218 1653.52 247.829 1653.52 Q251.463 1653.52 253.269 1649.98 Q255.097 1646.41 255.097 1639.31 Q255.097 1632.18 253.269 1628.64 Q251.463 1625.07 247.829 1625.07 M247.829 1621.37 Q253.639 1621.37 256.694 1625.98 Q259.773 1630.56 259.773 1639.31 Q259.773 1648.04 256.694 1652.64 Q253.639 1657.22 247.829 1657.22 Q242.019 1657.22 238.94 1652.64 Q235.884 1648.04 235.884 1639.31 Q235.884 1630.56 238.94 1625.98 Q242.019 1621.37 247.829 1621.37 Z" fill="#000000" fill-rule="nonzero" fill-opacity="1" /><path clip-path="url(#clip260)" d="M267.991 1650.67 L272.875 1650.67 L272.875 1656.55 L267.991 1656.55 L267.991 1650.67 Z" fill="#000000" fill-rule="nonzero" fill-opacity="1" /><path clip-path="url(#clip260)" d="M293.06 1625.07 Q289.449 1625.07 287.62 1628.64 Q285.815 1632.18 285.815 1639.31 Q285.815 1646.41 287.62 1649.98 Q289.449 1653.52 293.06 1653.52 Q296.694 1653.52 298.5 1649.98 Q300.329 1646.41 300.329 1639.31 Q300.329 1632.18 298.5 1628.64 Q296.694 1625.07 293.06 1625.07 M293.06 1621.37 Q298.87 1621.37 301.926 1625.98 Q305.004 1630.56 305.004 1639.31 Q305.004 1648.04 301.926 1652.64 Q298.87 1657.22 293.06 1657.22 Q287.25 1657.22 284.171 1652.64 Q281.116 1648.04 281.116 1639.31 Q281.116 1630.56 284.171 1625.98 Q287.25 1621.37 293.06 1621.37 Z" fill="#000000" fill-rule="nonzero" fill-opacity="1" /><path clip-path="url(#clip260)" d="M558.521 1625.07 Q554.91 1625.07 553.082 1628.64 Q551.276 1632.18 551.276 1639.31 Q551.276 1646.41 553.082 1649.98 Q554.91 1653.52 558.521 1653.52 Q562.156 1653.52 563.961 1649.98 Q565.79 1646.41 565.79 1639.31 Q565.79 1632.18 563.961 1628.64 Q562.156 1625.07 558.521 1625.07 M558.521 1621.37 Q564.331 1621.37 567.387 1625.98 Q570.466 1630.56 570.466 1639.31 Q570.466 1648.04 567.387 1652.64 Q564.331 1657.22 558.521 1657.22 Q552.711 1657.22 549.632 1652.64 Q546.577 1648.04 546.577 1639.31 Q546.577 1630.56 549.632 1625.98 Q552.711 1621.37 558.521 1621.37 Z" fill="#000000" fill-rule="nonzero" fill-opacity="1" /><path clip-path="url(#clip260)" d="M578.683 1650.67 L583.567 1650.67 L583.567 1656.55 L578.683 1656.55 L578.683 1650.67 Z" fill="#000000" fill-rule="nonzero" fill-opacity="1" /><path clip-path="url(#clip260)" d="M597.78 1652.62 L614.1 1652.62 L614.1 1656.55 L592.155 1656.55 L592.155 1652.62 Q594.817 1649.86 599.401 1645.23 Q604.007 1640.58 605.188 1639.24 Q607.433 1636.72 608.313 1634.98 Q609.216 1633.22 609.216 1631.53 Q609.216 1628.78 607.271 1627.04 Q605.35 1625.3 602.248 1625.3 Q600.049 1625.3 597.595 1626.07 Q595.165 1626.83 592.387 1628.38 L592.387 1623.66 Q595.211 1622.53 597.665 1621.95 Q600.118 1621.37 602.155 1621.37 Q607.526 1621.37 610.72 1624.05 Q613.915 1626.74 613.915 1631.23 Q613.915 1633.36 613.104 1635.28 Q612.317 1637.18 610.211 1639.77 Q609.632 1640.44 606.53 1643.66 Q603.428 1646.85 597.78 1652.62 Z" fill="#000000" fill-rule="nonzero" fill-opacity="1" /><path clip-path="url(#clip260)" d="M867.374 1625.07 Q863.762 1625.07 861.934 1628.64 Q860.128 1632.18 860.128 1639.31 Q860.128 1646.41 861.934 1649.98 Q863.762 1653.52 867.374 1653.52 Q871.008 1653.52 872.813 1649.98 Q874.642 1646.41 874.642 1639.31 Q874.642 1632.18 872.813 1628.64 Q871.008 1625.07 867.374 1625.07 M867.374 1621.37 Q873.184 1621.37 876.239 1625.98 Q879.318 1630.56 879.318 1639.31 Q879.318 1648.04 876.239 1652.64 Q873.184 1657.22 867.374 1657.22 Q861.563 1657.22 858.485 1652.64 Q855.429 1648.04 855.429 1639.31 Q855.429 1630.56 858.485 1625.98 Q861.563 1621.37 867.374 1621.37 Z" fill="#000000" fill-rule="nonzero" fill-opacity="1" /><path clip-path="url(#clip260)" d="M887.536 1650.67 L892.42 1650.67 L892.42 1656.55 L887.536 1656.55 L887.536 1650.67 Z" fill="#000000" fill-rule="nonzero" fill-opacity="1" /><path clip-path="url(#clip260)" d="M915.452 1626.07 L903.647 1644.52 L915.452 1644.52 L915.452 1626.07 M914.225 1621.99 L920.105 1621.99 L920.105 1644.52 L925.035 1644.52 L925.035 1648.41 L920.105 1648.41 L920.105 1656.55 L915.452 1656.55 L915.452 1648.41 L899.85 1648.41 L899.85 1643.89 L914.225 1621.99 Z" fill="#000000" fill-rule="nonzero" fill-opacity="1" /><path clip-path="url(#clip260)" d="M1177.43 1625.07 Q1173.82 1625.07 1171.99 1628.64 Q1170.18 1632.18 1170.18 1639.31 Q1170.18 1646.41 1171.99 1649.98 Q1173.82 1653.52 1177.43 1653.52 Q1181.06 1653.52 1182.87 1649.98 Q1184.7 1646.41 1184.7 1639.31 Q1184.7 1632.18 1182.87 1628.64 Q1181.06 1625.07 1177.43 1625.07 M1177.43 1621.37 Q1183.24 1621.37 1186.3 1625.98 Q1189.37 1630.56 1189.37 1639.31 Q1189.37 1648.04 1186.3 1652.64 Q1183.24 1657.22 1177.43 1657.22 Q1171.62 1657.22 1168.54 1652.64 Q1165.49 1648.04 1165.49 1639.31 Q1165.49 1630.56 1168.54 1625.98 Q1171.62 1621.37 1177.43 1621.37 Z" fill="#000000" fill-rule="nonzero" fill-opacity="1" /><path clip-path="url(#clip260)" d="M1197.59 1650.67 L1202.48 1650.67 L1202.48 1656.55 L1197.59 1656.55 L1197.59 1650.67 Z" fill="#000000" fill-rule="nonzero" fill-opacity="1" /><path clip-path="url(#clip260)" d="M1223.24 1637.41 Q1220.09 1637.41 1218.24 1639.56 Q1216.41 1641.72 1216.41 1645.47 Q1216.41 1649.19 1218.24 1651.37 Q1220.09 1653.52 1223.24 1653.52 Q1226.39 1653.52 1228.22 1651.37 Q1230.07 1649.19 1230.07 1645.47 Q1230.07 1641.72 1228.22 1639.56 Q1226.39 1637.41 1223.24 1637.41 M1232.52 1622.76 L1232.52 1627.02 Q1230.76 1626.18 1228.96 1625.74 Q1227.17 1625.3 1225.42 1625.3 Q1220.79 1625.3 1218.33 1628.43 Q1215.9 1631.55 1215.55 1637.87 Q1216.92 1635.86 1218.98 1634.79 Q1221.04 1633.71 1223.52 1633.71 Q1228.73 1633.71 1231.73 1636.88 Q1234.77 1640.03 1234.77 1645.47 Q1234.77 1650.79 1231.62 1654.01 Q1228.47 1657.22 1223.24 1657.22 Q1217.24 1657.22 1214.07 1652.64 Q1210.9 1648.04 1210.9 1639.31 Q1210.9 1631.11 1214.79 1626.25 Q1218.68 1621.37 1225.23 1621.37 Q1226.99 1621.37 1228.77 1621.72 Q1230.58 1622.06 1232.52 1622.76 Z" fill="#000000" fill-rule="nonzero" fill-opacity="1" /><path clip-path="url(#clip260)" d="M1487.45 1625.07 Q1483.84 1625.07 1482.01 1628.64 Q1480.21 1632.18 1480.21 1639.31 Q1480.21 1646.41 1482.01 1649.98 Q1483.84 1653.52 1487.45 1653.52 Q1491.09 1653.52 1492.89 1649.98 Q1494.72 1646.41 1494.72 1639.31 Q1494.72 1632.18 1492.89 1628.64 Q1491.09 1625.07 1487.45 1625.07 M1487.45 1621.37 Q1493.26 1621.37 1496.32 1625.98 Q1499.4 1630.56 1499.4 1639.31 Q1499.4 1648.04 1496.32 1652.64 Q1493.26 1657.22 1487.45 1657.22 Q1481.64 1657.22 1478.56 1652.64 Q1475.51 1648.04 1475.51 1639.31 Q1475.51 1630.56 1478.56 1625.98 Q1481.64 1621.37 1487.45 1621.37 Z" fill="#000000" fill-rule="nonzero" fill-opacity="1" /><path clip-path="url(#clip260)" d="M1507.61 1650.67 L1512.5 1650.67 L1512.5 1656.55 L1507.61 1656.55 L1507.61 1650.67 Z" fill="#000000" fill-rule="nonzero" fill-opacity="1" /><path clip-path="url(#clip260)" d="M1532.68 1640.14 Q1529.35 1640.14 1527.43 1641.92 Q1525.53 1643.71 1525.53 1646.83 Q1525.53 1649.96 1527.43 1651.74 Q1529.35 1653.52 1532.68 1653.52 Q1536.02 1653.52 1537.94 1651.74 Q1539.86 1649.93 1539.86 1646.83 Q1539.86 1643.71 1537.94 1641.92 Q1536.04 1640.14 1532.68 1640.14 M1528.01 1638.15 Q1525 1637.41 1523.31 1635.35 Q1521.64 1633.29 1521.64 1630.33 Q1521.64 1626.18 1524.58 1623.78 Q1527.54 1621.37 1532.68 1621.37 Q1537.84 1621.37 1540.78 1623.78 Q1543.72 1626.18 1543.72 1630.33 Q1543.72 1633.29 1542.03 1635.35 Q1540.37 1637.41 1537.38 1638.15 Q1540.76 1638.94 1542.64 1641.23 Q1544.53 1643.52 1544.53 1646.83 Q1544.53 1651.85 1541.46 1654.54 Q1538.4 1657.22 1532.68 1657.22 Q1526.96 1657.22 1523.89 1654.54 Q1520.83 1651.85 1520.83 1646.83 Q1520.83 1643.52 1522.73 1641.23 Q1524.63 1638.94 1528.01 1638.15 M1526.29 1630.77 Q1526.29 1633.45 1527.96 1634.96 Q1529.65 1636.46 1532.68 1636.46 Q1535.69 1636.46 1537.38 1634.96 Q1539.09 1633.45 1539.09 1630.77 Q1539.09 1628.08 1537.38 1626.58 Q1535.69 1625.07 1532.68 1625.07 Q1529.65 1625.07 1527.96 1626.58 Q1526.29 1628.08 1526.29 1630.77 Z" fill="#000000" fill-rule="nonzero" fill-opacity="1" /><path clip-path="url(#clip260)" d="M1787.07 1652.62 L1794.71 1652.62 L1794.71 1626.25 L1786.4 1627.92 L1786.4 1623.66 L1794.66 1621.99 L1799.34 1621.99 L1799.34 1652.62 L1806.97 1652.62 L1806.97 1656.55 L1787.07 1656.55 L1787.07 1652.62 Z" fill="#000000" fill-rule="nonzero" fill-opacity="1" /><path clip-path="url(#clip260)" d="M1816.42 1650.67 L1821.3 1650.67 L1821.3 1656.55 L1816.42 1656.55 L1816.42 1650.67 Z" fill="#000000" fill-rule="nonzero" fill-opacity="1" /><path clip-path="url(#clip260)" d="M1841.49 1625.07 Q1837.88 1625.07 1836.05 1628.64 Q1834.24 1632.18 1834.24 1639.31 Q1834.24 1646.41 1836.05 1649.98 Q1837.88 1653.52 1841.49 1653.52 Q1845.12 1653.52 1846.93 1649.98 Q1848.76 1646.41 1848.76 1639.31 Q1848.76 1632.18 1846.93 1628.64 Q1845.12 1625.07 1841.49 1625.07 M1841.49 1621.37 Q1847.3 1621.37 1850.35 1625.98 Q1853.43 1630.56 1853.43 1639.31 Q1853.43 1648.04 1850.35 1652.64 Q1847.3 1657.22 1841.49 1657.22 Q1835.68 1657.22 1832.6 1652.64 Q1829.54 1648.04 1829.54 1639.31 Q1829.54 1630.56 1832.6 1625.98 Q1835.68 1621.37 1841.49 1621.37 Z" fill="#000000" fill-rule="nonzero" fill-opacity="1" /><path clip-path="url(#clip260)" d="M1061.79 1701.13 L1048.9 1718.48 L1062.46 1736.78 L1055.56 1736.78 L1045.18 1722.77 L1034.8 1736.78 L1027.9 1736.78 L1041.74 1718.13 L1029.07 1701.13 L1035.98 1701.13 L1045.43 1713.83 L1054.89 1701.13 L1061.79 1701.13 Z" fill="#000000" fill-rule="nonzero" fill-opacity="1" /><polyline clip-path="url(#clip260)" style="stroke:#000000; stroke-linecap:round; stroke-linejoin:round; stroke-width:4; stroke-opacity:1; fill:none" points="270.444,1596.71 270.444,47.2441 "/>
<polyline clip-path="url(#clip260)" style="stroke:#000000; stroke-linecap:round; stroke-linejoin:round; stroke-width:4; stroke-opacity:1; fill:none" points="1819.91,1596.71 1819.91,47.2441 "/>
<polyline clip-path="url(#clip260)" style="stroke:#000000; stroke-linecap:round; stroke-linejoin:round; stroke-width:4; stroke-opacity:1; fill:none" points="270.444,1596.71 288.423,1596.71 "/>
<polyline clip-path="url(#clip260)" style="stroke:#000000; stroke-linecap:round; stroke-linejoin:round; stroke-width:4; stroke-opacity:1; fill:none" points="270.444,1286.82 288.423,1286.82 "/>
<polyline clip-path="url(#clip260)" style="stroke:#000000; stroke-linecap:round; stroke-linejoin:round; stroke-width:4; stroke-opacity:1; fill:none" points="270.444,976.926 288.423,976.926 "/>
<polyline clip-path="url(#clip260)" style="stroke:#000000; stroke-linecap:round; stroke-linejoin:round; stroke-width:4; stroke-opacity:1; fill:none" points="270.444,667.032 288.423,667.032 "/>
<polyline clip-path="url(#clip260)" style="stroke:#000000; stroke-linecap:round; stroke-linejoin:round; stroke-width:4; stroke-opacity:1; fill:none" points="270.444,357.138 288.423,357.138 "/>
<polyline clip-path="url(#clip260)" style="stroke:#000000; stroke-linecap:round; stroke-linejoin:round; stroke-width:4; stroke-opacity:1; fill:none" points="270.444,47.2441 288.423,47.2441 "/>
<polyline clip-path="url(#clip260)" style="stroke:#000000; stroke-linecap:round; stroke-linejoin:round; stroke-width:4; stroke-opacity:1; fill:none" points="1819.91,1596.71 1801.94,1596.71 "/>
<polyline clip-path="url(#clip260)" style="stroke:#000000; stroke-linecap:round; stroke-linejoin:round; stroke-width:4; stroke-opacity:1; fill:none" points="1819.91,1286.82 1801.94,1286.82 "/>
<polyline clip-path="url(#clip260)" style="stroke:#000000; stroke-linecap:round; stroke-linejoin:round; stroke-width:4; stroke-opacity:1; fill:none" points="1819.91,976.926 1801.94,976.926 "/>
<polyline clip-path="url(#clip260)" style="stroke:#000000; stroke-linecap:round; stroke-linejoin:round; stroke-width:4; stroke-opacity:1; fill:none" points="1819.91,667.032 1801.94,667.032 "/>
<polyline clip-path="url(#clip260)" style="stroke:#000000; stroke-linecap:round; stroke-linejoin:round; stroke-width:4; stroke-opacity:1; fill:none" points="1819.91,357.138 1801.94,357.138 "/>
<polyline clip-path="url(#clip260)" style="stroke:#000000; stroke-linecap:round; stroke-linejoin:round; stroke-width:4; stroke-opacity:1; fill:none" points="1819.91,47.2441 1801.94,47.2441 "/>
<path clip-path="url(#clip260)" d="M182.069 1582.51 Q178.458 1582.51 176.629 1586.08 Q174.823 1589.62 174.823 1596.75 Q174.823 1603.85 176.629 1607.42 Q178.458 1610.96 182.069 1610.96 Q185.703 1610.96 187.509 1607.42 Q189.337 1603.85 189.337 1596.75 Q189.337 1589.62 187.509 1586.08 Q185.703 1582.51 182.069 1582.51 M182.069 1578.81 Q187.879 1578.81 190.934 1583.42 Q194.013 1588 194.013 1596.75 Q194.013 1605.48 190.934 1610.08 Q187.879 1614.66 182.069 1614.66 Q176.259 1614.66 173.18 1610.08 Q170.124 1605.48 170.124 1596.75 Q170.124 1588 173.18 1583.42 Q176.259 1578.81 182.069 1578.81 Z" fill="#000000" fill-rule="nonzero" fill-opacity="1" /><path clip-path="url(#clip260)" d="M202.231 1608.11 L207.115 1608.11 L207.115 1613.99 L202.231 1613.99 L202.231 1608.11 Z" fill="#000000" fill-rule="nonzero" fill-opacity="1" /><path clip-path="url(#clip260)" d="M227.3 1582.51 Q223.689 1582.51 221.86 1586.08 Q220.055 1589.62 220.055 1596.75 Q220.055 1603.85 221.86 1607.42 Q223.689 1610.96 227.3 1610.96 Q230.934 1610.96 232.74 1607.42 Q234.569 1603.85 234.569 1596.75 Q234.569 1589.62 232.74 1586.08 Q230.934 1582.51 227.3 1582.51 M227.3 1578.81 Q233.11 1578.81 236.166 1583.42 Q239.244 1588 239.244 1596.75 Q239.244 1605.48 236.166 1610.08 Q233.11 1614.66 227.3 1614.66 Q221.49 1614.66 218.411 1610.08 Q215.356 1605.48 215.356 1596.75 Q215.356 1588 218.411 1583.42 Q221.49 1578.81 227.3 1578.81 Z" fill="#000000" fill-rule="nonzero" fill-opacity="1" /><path clip-path="url(#clip260)" d="M183.666 1272.62 Q180.055 1272.62 178.226 1276.18 Q176.421 1279.72 176.421 1286.85 Q176.421 1293.96 178.226 1297.53 Q180.055 1301.07 183.666 1301.07 Q187.3 1301.07 189.106 1297.53 Q190.934 1293.96 190.934 1286.85 Q190.934 1279.72 189.106 1276.18 Q187.3 1272.62 183.666 1272.62 M183.666 1268.91 Q189.476 1268.91 192.532 1273.52 Q195.61 1278.1 195.61 1286.85 Q195.61 1295.58 192.532 1300.19 Q189.476 1304.77 183.666 1304.77 Q177.856 1304.77 174.777 1300.19 Q171.722 1295.58 171.722 1286.85 Q171.722 1278.1 174.777 1273.52 Q177.856 1268.91 183.666 1268.91 Z" fill="#000000" fill-rule="nonzero" fill-opacity="1" /><path clip-path="url(#clip260)" d="M203.828 1298.22 L208.712 1298.22 L208.712 1304.1 L203.828 1304.1 L203.828 1298.22 Z" fill="#000000" fill-rule="nonzero" fill-opacity="1" /><path clip-path="url(#clip260)" d="M222.925 1300.16 L239.244 1300.16 L239.244 1304.1 L217.3 1304.1 L217.3 1300.16 Q219.962 1297.41 224.545 1292.78 Q229.152 1288.13 230.332 1286.79 Q232.578 1284.26 233.457 1282.53 Q234.36 1280.77 234.36 1279.08 Q234.36 1276.32 232.416 1274.59 Q230.494 1272.85 227.393 1272.85 Q225.194 1272.85 222.74 1273.61 Q220.309 1274.38 217.532 1275.93 L217.532 1271.21 Q220.356 1270.07 222.809 1269.49 Q225.263 1268.91 227.3 1268.91 Q232.67 1268.91 235.865 1271.6 Q239.059 1274.29 239.059 1278.78 Q239.059 1280.91 238.249 1282.83 Q237.462 1284.72 235.356 1287.32 Q234.777 1287.99 231.675 1291.21 Q228.573 1294.4 222.925 1300.16 Z" fill="#000000" fill-rule="nonzero" fill-opacity="1" /><path clip-path="url(#clip260)" d="M181.583 962.725 Q177.972 962.725 176.143 966.289 Q174.337 969.831 174.337 976.961 Q174.337 984.067 176.143 987.632 Q177.972 991.173 181.583 991.173 Q185.217 991.173 187.022 987.632 Q188.851 984.067 188.851 976.961 Q188.851 969.831 187.022 966.289 Q185.217 962.725 181.583 962.725 M181.583 959.021 Q187.393 959.021 190.448 963.627 Q193.527 968.211 193.527 976.961 Q193.527 985.687 190.448 990.294 Q187.393 994.877 181.583 994.877 Q175.773 994.877 172.694 990.294 Q169.638 985.687 169.638 976.961 Q169.638 968.211 172.694 963.627 Q175.773 959.021 181.583 959.021 Z" fill="#000000" fill-rule="nonzero" fill-opacity="1" /><path clip-path="url(#clip260)" d="M201.745 988.326 L206.629 988.326 L206.629 994.206 L201.745 994.206 L201.745 988.326 Z" fill="#000000" fill-rule="nonzero" fill-opacity="1" /><path clip-path="url(#clip260)" d="M229.661 963.72 L217.856 982.169 L229.661 982.169 L229.661 963.72 M228.434 959.646 L234.314 959.646 L234.314 982.169 L239.244 982.169 L239.244 986.058 L234.314 986.058 L234.314 994.206 L229.661 994.206 L229.661 986.058 L214.059 986.058 L214.059 981.544 L228.434 959.646 Z" fill="#000000" fill-rule="nonzero" fill-opacity="1" /><path clip-path="url(#clip260)" d="M181.907 652.831 Q178.296 652.831 176.467 656.395 Q174.661 659.937 174.661 667.067 Q174.661 674.173 176.467 677.738 Q178.296 681.28 181.907 681.28 Q185.541 681.28 187.347 677.738 Q189.175 674.173 189.175 667.067 Q189.175 659.937 187.347 656.395 Q185.541 652.831 181.907 652.831 M181.907 649.127 Q187.717 649.127 190.772 653.733 Q193.851 658.317 193.851 667.067 Q193.851 675.793 190.772 680.4 Q187.717 684.983 181.907 684.983 Q176.097 684.983 173.018 680.4 Q169.962 675.793 169.962 667.067 Q169.962 658.317 173.018 653.733 Q176.097 649.127 181.907 649.127 Z" fill="#000000" fill-rule="nonzero" fill-opacity="1" /><path clip-path="url(#clip260)" d="M202.069 678.432 L206.953 678.432 L206.953 684.312 L202.069 684.312 L202.069 678.432 Z" fill="#000000" fill-rule="nonzero" fill-opacity="1" /><path clip-path="url(#clip260)" d="M227.717 665.169 Q224.569 665.169 222.717 667.321 Q220.888 669.474 220.888 673.224 Q220.888 676.951 222.717 679.127 Q224.569 681.28 227.717 681.28 Q230.865 681.28 232.694 679.127 Q234.545 676.951 234.545 673.224 Q234.545 669.474 232.694 667.321 Q230.865 665.169 227.717 665.169 M236.999 650.516 L236.999 654.775 Q235.24 653.942 233.434 653.502 Q231.652 653.062 229.893 653.062 Q225.263 653.062 222.809 656.187 Q220.379 659.312 220.032 665.631 Q221.397 663.618 223.457 662.553 Q225.518 661.465 227.994 661.465 Q233.203 661.465 236.212 664.636 Q239.244 667.784 239.244 673.224 Q239.244 678.548 236.096 681.766 Q232.948 684.983 227.717 684.983 Q221.721 684.983 218.55 680.4 Q215.379 675.793 215.379 667.067 Q215.379 658.872 219.268 654.011 Q223.157 649.127 229.707 649.127 Q231.467 649.127 233.249 649.474 Q235.055 649.821 236.999 650.516 Z" fill="#000000" fill-rule="nonzero" fill-opacity="1" /><path clip-path="url(#clip260)" d="M182.161 342.937 Q178.55 342.937 176.722 346.501 Q174.916 350.043 174.916 357.173 Q174.916 364.279 176.722 367.844 Q178.55 371.386 182.161 371.386 Q185.796 371.386 187.601 367.844 Q189.43 364.279 189.43 357.173 Q189.43 350.043 187.601 346.501 Q185.796 342.937 182.161 342.937 M182.161 339.233 Q187.972 339.233 191.027 343.839 Q194.106 348.423 194.106 357.173 Q194.106 365.9 191.027 370.506 Q187.972 375.089 182.161 375.089 Q176.351 375.089 173.273 370.506 Q170.217 365.9 170.217 357.173 Q170.217 348.423 173.273 343.839 Q176.351 339.233 182.161 339.233 Z" fill="#000000" fill-rule="nonzero" fill-opacity="1" /><path clip-path="url(#clip260)" d="M202.323 368.538 L207.208 368.538 L207.208 374.418 L202.323 374.418 L202.323 368.538 Z" fill="#000000" fill-rule="nonzero" fill-opacity="1" /><path clip-path="url(#clip260)" d="M227.393 358.006 Q224.059 358.006 222.138 359.788 Q220.24 361.571 220.24 364.696 Q220.24 367.821 222.138 369.603 Q224.059 371.386 227.393 371.386 Q230.726 371.386 232.647 369.603 Q234.569 367.798 234.569 364.696 Q234.569 361.571 232.647 359.788 Q230.749 358.006 227.393 358.006 M222.717 356.015 Q219.707 355.275 218.018 353.214 Q216.351 351.154 216.351 348.191 Q216.351 344.048 219.291 341.64 Q222.254 339.233 227.393 339.233 Q232.555 339.233 235.494 341.64 Q238.434 344.048 238.434 348.191 Q238.434 351.154 236.744 353.214 Q235.078 355.275 232.092 356.015 Q235.471 356.802 237.346 359.094 Q239.244 361.386 239.244 364.696 Q239.244 369.719 236.166 372.404 Q233.11 375.089 227.393 375.089 Q221.675 375.089 218.596 372.404 Q215.541 369.719 215.541 364.696 Q215.541 361.386 217.439 359.094 Q219.337 356.802 222.717 356.015 M221.004 348.631 Q221.004 351.316 222.67 352.821 Q224.36 354.326 227.393 354.326 Q230.402 354.326 232.092 352.821 Q233.805 351.316 233.805 348.631 Q233.805 345.946 232.092 344.441 Q230.402 342.937 227.393 342.937 Q224.36 342.937 222.67 344.441 Q221.004 345.946 221.004 348.631 Z" fill="#000000" fill-rule="nonzero" fill-opacity="1" /><path clip-path="url(#clip260)" d="M172.879 60.5889 L180.518 60.5889 L180.518 34.2233 L172.208 35.89 L172.208 31.6308 L180.472 29.9641 L185.147 29.9641 L185.147 60.5889 L192.786 60.5889 L192.786 64.5241 L172.879 64.5241 L172.879 60.5889 Z" fill="#000000" fill-rule="nonzero" fill-opacity="1" /><path clip-path="url(#clip260)" d="M202.231 58.6445 L207.115 58.6445 L207.115 64.5241 L202.231 64.5241 L202.231 58.6445 Z" fill="#000000" fill-rule="nonzero" fill-opacity="1" /><path clip-path="url(#clip260)" d="M227.3 33.0428 Q223.689 33.0428 221.86 36.6076 Q220.055 40.1492 220.055 47.2788 Q220.055 54.3853 221.86 57.9501 Q223.689 61.4917 227.3 61.4917 Q230.934 61.4917 232.74 57.9501 Q234.569 54.3853 234.569 47.2788 Q234.569 40.1492 232.74 36.6076 Q230.934 33.0428 227.3 33.0428 M227.3 29.3391 Q233.11 29.3391 236.166 33.9456 Q239.244 38.5289 239.244 47.2788 Q239.244 56.0056 236.166 60.6121 Q233.11 65.1954 227.3 65.1954 Q221.49 65.1954 218.411 60.6121 Q215.356 56.0056 215.356 47.2788 Q215.356 38.5289 218.411 33.9456 Q221.49 29.3391 227.3 29.3391 Z" fill="#000000" fill-rule="nonzero" fill-opacity="1" /><path clip-path="url(#clip260)" d="M127.492 820.292 Q133.858 822.775 135.8 825.13 Q137.741 827.485 137.741 831.432 L137.741 836.111 L132.84 836.111 L132.84 832.673 Q132.84 830.254 131.694 828.918 Q130.548 827.581 126.283 825.957 L123.609 824.907 L88.5344 839.325 L88.5344 833.119 L116.416 821.979 L88.5344 810.839 L88.5344 804.632 L127.492 820.292 Z" fill="#000000" fill-rule="nonzero" fill-opacity="1" /><path clip-path="url(#clip261)" d="M270.444 1596.71 L270.444 1596.71 L310.174 1596.71 L349.904 1596.71 L389.634 1596.71 L429.364 1596.71 L469.094 1596.71 L508.824 1596.71 L548.554 1596.71 L588.284 1596.71 L628.014 1596.71 L667.744 1596.71 L707.474 1596.71 L747.204 1596.71 L786.934 1596.71 L826.664 1596.71 L866.394 1596.71 L906.124 1596.71 L945.854 1596.71 L985.584 1596.71 L1025.31 1596.71 L1065.04 1596.71 L1104.77 1596.71 L1144.5 1596.71 L1184.23 1596.71 L1223.96 1596.71 L1263.69 1596.71 L1303.42 1596.71 L1343.15 1596.71 L1382.88 1596.71 L1422.61 1596.71 L1462.34 1596.71 L1502.07 1596.71 L1541.8 1596.71 L1581.53 1596.71 L1621.26 1596.71 L1660.99 1596.71 L1700.72 1596.71 L1740.45 1596.71 L1780.18 1596.71 L1819.91 1596.71 L1819.91 1596.71 L1819.91 1596.71 L1819.91 1596.71 L1819.91 1556.98 L1819.91 1517.25 L1819.91 1477.52 L1819.91 1437.79 L1819.91 1398.06 L1819.91 1358.33 L1819.91 1318.6 L1819.91 1278.87 L1819.91 1239.14 L1819.91 1199.41 L1819.91 1159.68 L1819.91 1119.95 L1819.91 1080.22 L1819.91 1040.49 L1819.91 1000.76 L1819.91 961.034 L1819.91 921.304 L1819.91 881.574 L1819.91 841.844 L1819.91 802.114 L1819.91 762.384 L1819.91 722.654 L1819.91 682.924 L1819.91 643.194 L1819.91 603.464 L1819.91 563.734 L1819.91 524.004 L1819.91 484.274 L1819.91 444.544 L1819.91 404.814 L1819.91 365.084 L1819.91 325.354 L1819.91 285.624 L1819.91 245.894 L1819.91 206.164 L1819.91 166.434 L1819.91 126.704 L1819.91 86.9741 L1819.91 47.2441 L1819.91 47.2441 L1819.91 47.2441 L1819.91 47.2441 L1780.18 47.2441 L1740.45 47.2441 L1700.72 47.2441 L1660.99 47.2441 L1621.26 47.2441 L1581.53 47.2441 L1541.8 47.2441 L1502.07 47.2441 L1462.34 47.2441 L1422.61 47.2441 L1382.88 47.2441 L1343.15 47.2441 L1303.42 47.2441 L1263.69 47.2441 L1223.96 47.2441 L1184.23 47.2441 L1144.5 47.2441 L1104.77 47.2441 L1065.04 47.2441 L1025.31 47.2441 L985.584 47.2441 L945.854 47.2441 L906.124 47.2441 L866.394 47.2441 L826.664 47.2441 L786.934 47.2441 L747.204 47.2441 L707.474 47.2441 L667.744 47.2441 L628.014 47.2441 L588.284 47.2441 L548.554 47.2441 L508.824 47.2441 L469.094 47.2441 L429.364 47.2441 L389.634 47.2441 L349.904 47.2441 L310.174 47.2441 L270.444 47.2441 L270.444 47.2441 L270.444 47.2441 L270.444 47.2441 L270.444 86.9741 L270.444 126.704 L270.444 166.434 L270.444 206.164 L270.444 245.894 L270.444 285.624 L270.444 325.354 L270.444 365.084 L270.444 404.814 L270.444 444.544 L270.444 484.274 L270.444 524.004 L270.444 563.734 L270.444 603.464 L270.444 643.194 L270.444 682.924 L270.444 722.654 L270.444 762.384 L270.444 802.114 L270.444 841.844 L270.444 881.574 L270.444 921.304 L270.444 961.034 L270.444 1000.76 L270.444 1040.49 L270.444 1080.22 L270.444 1119.95 L270.444 1159.68 L270.444 1199.41 L270.444 1239.14 L270.444 1278.87 L270.444 1318.6 L270.444 1358.33 L270.444 1398.06 L270.444 1437.79 L270.444 1477.52 L270.444 1517.25 L270.444 1556.98 L270.444 1596.71 L270.444 1596.71 L270.444 1596.71  Z" fill="#440154" fill-rule="evenodd" fill-opacity="1"/>
<path clip-path="url(#clip261)" d="M985.584 1557.64 L1025.31 1557.97 L1065.04 1557.97 L1104.77 1557.64 L1141.36 1556.98 L1144.5 1556.94 L1184.23 1556.16 L1223.96 1555.4 L1263.69 1554.28 L1303.42 1552.65 L1343.15 1550.42 L1382.88 1548.45 L1422.61 1545.64 L1462.34 1541.59 L1502.07 1535.88 L1541.8 1530.61 L1581.53 1522.59 L1599.74 1517.25 L1621.26 1509.65 L1660.99 1484.18 L1670.82 1477.52 L1700.72 1447.62 L1707.38 1437.79 L1732.86 1398.06 L1740.45 1376.54 L1745.79 1358.33 L1753.81 1318.6 L1759.08 1278.87 L1764.79 1239.14 L1768.84 1199.41 L1771.65 1159.68 L1773.62 1119.95 L1775.85 1080.22 L1777.48 1040.49 L1778.6 1000.76 L1779.36 961.034 L1780.15 921.304 L1780.18 918.162 L1780.84 881.574 L1781.17 841.844 L1781.17 802.114 L1780.84 762.384 L1780.18 725.795 L1780.15 722.654 L1779.36 682.924 L1778.6 643.194 L1777.48 603.464 L1775.85 563.734 L1773.62 524.004 L1771.65 484.274 L1768.84 444.544 L1764.79 404.814 L1759.08 365.084 L1753.81 325.354 L1745.79 285.624 L1740.45 267.418 L1732.86 245.894 L1707.38 206.164 L1700.72 196.342 L1670.82 166.434 L1660.99 159.777 L1621.26 134.303 L1599.74 126.704 L1581.53 121.364 L1541.8 113.352 L1502.07 108.082 L1462.34 102.364 L1422.61 98.3181 L1382.88 95.5116 L1343.15 93.5397 L1303.42 91.3058 L1263.69 89.6763 L1223.96 88.562 L1184.23 87.8011 L1144.5 87.0129 L1141.36 86.9741 L1104.77 86.3213 L1065.04 85.9858 L1025.31 85.9858 L985.584 86.3213 L948.996 86.9741 L945.854 87.0129 L906.124 87.8011 L866.394 88.562 L826.664 89.6763 L786.934 91.3058 L747.204 93.5397 L707.474 95.5116 L667.744 98.3181 L628.014 102.364 L588.284 108.082 L548.554 113.352 L508.824 121.364 L490.618 126.704 L469.094 134.303 L429.364 159.777 L419.543 166.434 L389.634 196.342 L382.977 206.164 L357.503 245.894 L349.904 267.418 L344.565 285.624 L336.553 325.354 L331.282 365.084 L325.565 404.814 L321.518 444.544 L318.712 484.274 L316.74 524.004 L314.506 563.734 L312.877 603.464 L311.762 643.194 L311.001 682.924 L310.213 722.654 L310.174 725.795 L309.522 762.384 L309.186 802.114 L309.186 841.844 L309.522 881.574 L310.174 918.162 L310.213 921.304 L311.001 961.034 L311.762 1000.76 L312.877 1040.49 L314.506 1080.22 L316.74 1119.95 L318.712 1159.68 L321.518 1199.41 L325.565 1239.14 L331.282 1278.87 L336.553 1318.6 L344.565 1358.33 L349.904 1376.54 L357.503 1398.06 L382.977 1437.79 L389.634 1447.62 L419.543 1477.52 L429.364 1484.18 L469.094 1509.65 L490.618 1517.25 L508.824 1522.59 L548.554 1530.61 L588.284 1535.88 L628.014 1541.59 L667.744 1545.64 L707.474 1548.45 L747.204 1550.42 L786.934 1552.65 L826.664 1554.28 L866.394 1555.4 L906.124 1556.16 L945.854 1556.94 L948.996 1556.98 L985.584 1557.64  Z" fill="#481e70" fill-rule="evenodd" fill-opacity="1"/>
<path clip-path="url(#clip261)" d="M866.394 1517.45 L906.124 1518.97 L945.854 1520.55 L985.584 1521.52 L1025.31 1521.98 L1065.04 1521.98 L1104.77 1521.52 L1144.5 1520.55 L1184.23 1518.97 L1223.96 1517.45 L1227.62 1517.25 L1263.69 1515.19 L1303.42 1511.88 L1343.15 1507.34 L1382.88 1503.32 L1422.61 1497.61 L1462.34 1489.38 L1502.07 1477.73 L1502.92 1477.52 L1541.8 1465.58 L1581.53 1447.05 L1595.42 1437.79 L1621.26 1422.18 L1645.38 1398.06 L1660.99 1372.22 L1670.25 1358.33 L1688.79 1318.6 L1700.72 1279.72 L1700.93 1278.87 L1712.58 1239.14 L1720.81 1199.41 L1726.52 1159.68 L1730.54 1119.95 L1735.08 1080.22 L1738.39 1040.49 L1740.45 1004.42 L1740.65 1000.76 L1742.17 961.034 L1743.75 921.304 L1744.72 881.574 L1745.18 841.844 L1745.18 802.114 L1744.72 762.384 L1743.75 722.654 L1742.17 682.924 L1740.65 643.194 L1740.45 639.536 L1738.39 603.464 L1735.08 563.734 L1730.54 524.004 L1726.52 484.274 L1720.81 444.544 L1712.58 404.814 L1700.93 365.084 L1700.72 364.235 L1688.79 325.354 L1670.25 285.624 L1660.99 271.736 L1645.38 245.894 L1621.26 221.775 L1595.42 206.164 L1581.53 196.904 L1541.8 178.373 L1502.92 166.434 L1502.07 166.223 L1462.34 154.58 L1422.61 146.344 L1382.88 140.634 L1343.15 136.622 L1303.42 132.079 L1263.69 128.766 L1227.62 126.704 L1223.96 126.504 L1184.23 124.984 L1144.5 123.408 L1104.77 122.439 L1065.04 121.981 L1025.31 121.981 L985.584 122.439 L945.854 123.408 L906.124 124.984 L866.394 126.504 L862.737 126.704 L826.664 128.766 L786.934 132.079 L747.204 136.622 L707.474 140.634 L667.744 146.344 L628.014 154.58 L588.284 166.223 L587.435 166.434 L548.554 178.373 L508.824 196.904 L494.936 206.164 L469.094 221.775 L444.975 245.894 L429.364 271.736 L420.105 285.624 L401.573 325.354 L389.634 364.235 L389.424 365.084 L377.78 404.814 L369.545 444.544 L363.834 484.274 L359.823 524.004 L355.279 563.734 L351.966 603.464 L349.904 639.536 L349.705 643.194 L348.184 682.924 L346.609 722.654 L345.64 762.384 L345.182 802.114 L345.182 841.844 L345.64 881.574 L346.609 921.304 L348.184 961.034 L349.705 1000.76 L349.904 1004.42 L351.966 1040.49 L355.279 1080.22 L359.823 1119.95 L363.834 1159.68 L369.545 1199.41 L377.78 1239.14 L389.424 1278.87 L389.634 1279.72 L401.573 1318.6 L420.105 1358.33 L429.364 1372.22 L444.975 1398.06 L469.094 1422.18 L494.936 1437.79 L508.824 1447.05 L548.554 1465.58 L587.435 1477.52 L588.284 1477.73 L628.014 1489.38 L667.744 1497.61 L707.474 1503.32 L747.204 1507.34 L786.934 1511.88 L826.664 1515.19 L862.737 1517.25 L866.394 1517.45  Z" fill="#443982" fill-rule="evenodd" fill-opacity="1"/>
<path clip-path="url(#clip261)" d="M866.394 1478.87 L906.124 1481.19 L945.854 1483.59 L985.584 1485.07 L1025.31 1485.77 L1065.04 1485.77 L1104.77 1485.07 L1144.5 1483.59 L1184.23 1481.19 L1223.96 1478.87 L1239.91 1477.52 L1263.69 1475.19 L1303.42 1469.56 L1343.15 1461.84 L1382.88 1455.02 L1422.61 1445.3 L1444.7 1437.79 L1462.34 1432.81 L1502.07 1417.62 L1541.8 1403.6 L1553.05 1398.06 L1581.53 1377.96 L1601.16 1358.33 L1621.26 1329.85 L1626.8 1318.6 L1640.82 1278.87 L1656.01 1239.14 L1660.99 1221.5 L1668.5 1199.41 L1678.22 1159.68 L1685.04 1119.95 L1692.76 1080.22 L1698.39 1040.49 L1700.72 1016.71 L1702.07 1000.76 L1704.39 961.034 L1706.79 921.304 L1708.27 881.574 L1708.97 841.844 L1708.97 802.114 L1708.27 762.384 L1706.79 722.654 L1704.39 682.924 L1702.07 643.194 L1700.72 627.245 L1698.39 603.464 L1692.76 563.734 L1685.04 524.004 L1678.22 484.274 L1668.5 444.544 L1660.99 422.462 L1656.01 404.814 L1640.82 365.084 L1626.8 325.354 L1621.26 314.107 L1601.16 285.624 L1581.53 265.998 L1553.05 245.894 L1541.8 240.363 L1502.07 226.338 L1462.34 211.148 L1444.7 206.164 L1422.61 198.658 L1382.88 188.943 L1343.15 182.12 L1303.42 174.395 L1263.69 168.765 L1239.91 166.434 L1223.96 165.092 L1184.23 162.77 L1144.5 160.365 L1104.77 158.885 L1065.04 158.186 L1025.31 158.186 L985.584 158.885 L945.854 160.365 L906.124 162.77 L866.394 165.092 L850.446 166.434 L826.664 168.765 L786.934 174.395 L747.204 182.12 L707.474 188.943 L667.744 198.658 L645.663 206.164 L628.014 211.148 L588.284 226.338 L548.554 240.363 L537.308 245.894 L508.824 265.998 L489.198 285.624 L469.094 314.107 L463.563 325.354 L449.538 365.084 L434.348 404.814 L429.364 422.462 L421.858 444.544 L412.143 484.274 L405.32 524.004 L397.596 563.734 L391.965 603.464 L389.634 627.245 L388.293 643.194 L385.97 682.924 L383.565 722.654 L382.086 762.384 L381.386 802.114 L381.386 841.844 L382.086 881.574 L383.565 921.304 L385.97 961.034 L388.293 1000.76 L389.634 1016.71 L391.965 1040.49 L397.596 1080.22 L405.32 1119.95 L412.143 1159.68 L421.858 1199.41 L429.364 1221.5 L434.348 1239.14 L449.538 1278.87 L463.563 1318.6 L469.094 1329.85 L489.198 1358.33 L508.824 1377.96 L537.308 1398.06 L548.554 1403.6 L588.284 1417.62 L628.014 1432.81 L645.663 1437.79 L667.744 1445.3 L707.474 1455.02 L747.204 1461.84 L786.934 1469.56 L826.664 1475.19 L850.446 1477.52 L866.394 1478.87  Z" fill="#3b518a" fill-rule="evenodd" fill-opacity="1"/>
<path clip-path="url(#clip261)" d="M906.124 1438.88 L945.854 1442.52 L985.584 1444.75 L1025.31 1445.81 L1065.04 1445.81 L1104.77 1444.75 L1144.5 1442.52 L1184.23 1438.88 L1196.73 1437.79 L1223.96 1435.94 L1263.69 1432.01 L1303.42 1426.26 L1343.15 1418.37 L1382.88 1411.4 L1422.61 1401.47 L1432.65 1398.06 L1462.34 1384.19 L1502.07 1358.4 L1502.2 1358.33 L1541.8 1329.91 L1553.11 1318.6 L1581.53 1279 L1581.6 1278.87 L1607.39 1239.14 L1621.26 1209.45 L1624.67 1199.41 L1634.6 1159.68 L1641.57 1119.95 L1649.46 1080.22 L1655.21 1040.49 L1659.14 1000.76 L1660.99 973.533 L1662.08 961.034 L1665.72 921.304 L1667.95 881.574 L1669.01 841.844 L1669.01 802.114 L1667.95 762.384 L1665.72 722.654 L1662.08 682.924 L1660.99 670.425 L1659.14 643.194 L1655.21 603.464 L1649.46 563.734 L1641.57 524.004 L1634.6 484.274 L1624.67 444.544 L1621.26 434.504 L1607.39 404.814 L1581.6 365.084 L1581.53 364.958 L1553.11 325.354 L1541.8 314.043 L1502.2 285.624 L1502.07 285.555 L1462.34 259.77 L1432.65 245.894 L1422.61 242.49 L1382.88 232.557 L1343.15 225.584 L1303.42 217.693 L1263.69 211.943 L1223.96 208.014 L1196.73 206.164 L1184.23 205.075 L1144.5 201.441 L1104.77 199.206 L1065.04 198.15 L1025.31 198.15 L985.584 199.206 L945.854 201.441 L906.124 205.075 L893.625 206.164 L866.394 208.014 L826.664 211.943 L786.934 217.693 L747.204 225.584 L707.474 232.557 L667.744 242.49 L657.704 245.894 L628.014 259.77 L588.284 285.555 L588.158 285.624 L548.554 314.043 L537.243 325.354 L508.824 364.958 L508.755 365.084 L482.971 404.814 L469.094 434.504 L465.69 444.544 L455.758 484.274 L448.785 524.004 L440.893 563.734 L435.144 603.464 L431.214 643.194 L429.364 670.425 L428.276 682.924 L424.641 722.654 L422.407 762.384 L421.35 802.114 L421.35 841.844 L422.407 881.574 L424.641 921.304 L428.276 961.034 L429.364 973.533 L431.214 1000.76 L435.144 1040.49 L440.893 1080.22 L448.785 1119.95 L455.758 1159.68 L465.69 1199.41 L469.094 1209.45 L482.971 1239.14 L508.755 1278.87 L508.824 1279 L537.243 1318.6 L548.554 1329.91 L588.158 1358.33 L588.284 1358.4 L628.014 1384.19 L657.704 1398.06 L667.744 1401.47 L707.474 1411.4 L747.204 1418.37 L786.934 1426.26 L826.664 1432.01 L866.394 1435.94 L893.625 1437.79 L906.124 1438.88  Z" fill="#30678d" fill-rule="evenodd" fill-opacity="1"/>
<path clip-path="url(#clip261)" d="M866.394 1402.57 L906.124 1405.93 L945.854 1409.41 L985.584 1411.55 L1025.31 1412.56 L1065.04 1412.56 L1104.77 1411.55 L1144.5 1409.41 L1184.23 1405.93 L1223.96 1402.57 L1260.43 1398.06 L1263.69 1397.54 L1303.42 1388.41 L1343.15 1375.87 L1382.88 1364.79 L1399.73 1358.33 L1422.61 1347.18 L1462.34 1319.92 L1463.85 1318.6 L1497.31 1278.87 L1502.07 1274.11 L1541.8 1240.65 L1543.12 1239.14 L1570.38 1199.41 L1581.53 1176.53 L1587.99 1159.68 L1599.07 1119.95 L1611.61 1080.22 L1620.74 1040.49 L1621.26 1037.23 L1625.77 1000.76 L1629.13 961.034 L1632.61 921.304 L1634.75 881.574 L1635.76 841.844 L1635.76 802.114 L1634.75 762.384 L1632.61 722.654 L1629.13 682.924 L1625.77 643.194 L1621.26 606.724 L1620.74 603.464 L1611.61 563.734 L1599.07 524.004 L1587.99 484.274 L1581.53 467.43 L1570.38 444.544 L1543.12 404.814 L1541.8 403.31 L1502.07 369.85 L1497.31 365.084 L1463.85 325.354 L1462.34 324.034 L1422.61 296.774 L1399.73 285.624 L1382.88 279.166 L1343.15 268.084 L1303.42 255.549 L1263.69 246.42 L1260.43 245.894 L1223.96 241.387 L1184.23 238.028 L1144.5 234.549 L1104.77 232.411 L1065.04 231.4 L1025.31 231.4 L985.584 232.411 L945.854 234.549 L906.124 238.028 L866.394 241.387 L829.925 245.894 L826.664 246.42 L786.934 255.549 L747.204 268.084 L707.474 279.166 L690.63 285.624 L667.744 296.774 L628.014 324.034 L626.51 325.354 L593.05 365.084 L588.284 369.85 L548.554 403.31 L547.234 404.814 L519.975 444.544 L508.824 467.43 L502.366 484.274 L491.285 524.004 L478.749 563.734 L469.62 603.464 L469.094 606.724 L464.588 643.194 L461.228 682.924 L457.749 722.654 L455.611 762.384 L454.6 802.114 L454.6 841.844 L455.611 881.574 L457.749 921.304 L461.228 961.034 L464.588 1000.76 L469.094 1037.23 L469.62 1040.49 L478.749 1080.22 L491.285 1119.95 L502.366 1159.68 L508.824 1176.53 L519.975 1199.41 L547.234 1239.14 L548.554 1240.65 L588.284 1274.11 L593.05 1278.87 L626.51 1318.6 L628.014 1319.92 L667.744 1347.18 L690.63 1358.33 L707.474 1364.79 L747.204 1375.87 L786.934 1388.41 L826.664 1397.54 L829.925 1398.06 L866.394 1402.57  Z" fill="#287b8e" fill-rule="evenodd" fill-opacity="1"/>
<path clip-path="url(#clip261)" d="M866.394 1361.49 L906.124 1366.61 L945.854 1371.91 L985.584 1375.16 L1025.31 1376.7 L1065.04 1376.7 L1104.77 1375.16 L1144.5 1371.91 L1184.23 1366.61 L1223.96 1361.49 L1240.94 1358.33 L1263.69 1353.14 L1303.42 1340.04 L1343.15 1322.03 L1352.01 1318.6 L1382.88 1303.22 L1417.75 1278.87 L1422.61 1276.13 L1462.34 1245.47 L1468.67 1239.14 L1499.33 1199.41 L1502.07 1194.55 L1526.42 1159.68 L1541.8 1128.81 L1545.23 1119.95 L1563.24 1080.22 L1576.34 1040.49 L1581.53 1017.74 L1584.69 1000.76 L1589.81 961.034 L1595.11 921.304 L1598.36 881.574 L1599.9 841.844 L1599.9 802.114 L1598.36 762.384 L1595.11 722.654 L1589.81 682.924 L1584.69 643.194 L1581.53 626.218 L1576.34 603.464 L1563.24 563.734 L1545.23 524.004 L1541.8 515.147 L1526.42 484.274 L1502.07 449.405 L1499.33 444.544 L1468.67 404.814 L1462.34 398.493 L1422.61 367.825 L1417.75 365.084 L1382.88 340.741 L1352.01 325.354 L1343.15 321.929 L1303.42 303.922 L1263.69 290.815 L1240.94 285.624 L1223.96 282.473 L1184.23 277.352 L1144.5 272.052 L1104.77 268.794 L1065.04 267.254 L1025.31 267.254 L985.584 268.794 L945.854 272.052 L906.124 277.352 L866.394 282.473 L849.419 285.624 L826.664 290.815 L786.934 303.922 L747.204 321.929 L738.347 325.354 L707.474 340.741 L672.605 365.084 L667.744 367.825 L628.014 398.493 L621.693 404.814 L591.025 444.544 L588.284 449.405 L563.941 484.274 L548.554 515.147 L545.129 524.004 L527.122 563.734 L514.015 603.464 L508.824 626.218 L505.673 643.194 L500.553 682.924 L495.252 722.654 L491.995 762.384 L490.455 802.114 L490.455 841.844 L491.995 881.574 L495.252 921.304 L500.553 961.034 L505.673 1000.76 L508.824 1017.74 L514.015 1040.49 L527.122 1080.22 L545.129 1119.95 L548.554 1128.81 L563.941 1159.68 L588.284 1194.55 L591.025 1199.41 L621.693 1239.14 L628.014 1245.47 L667.744 1276.13 L672.605 1278.87 L707.474 1303.22 L738.347 1318.6 L747.204 1322.03 L786.934 1340.04 L826.664 1353.14 L849.419 1358.33 L866.394 1361.49  Z" fill="#208f8c" fill-rule="evenodd" fill-opacity="1"/>
<path clip-path="url(#clip261)" d="M906.124 1318.79 L945.854 1326.18 L985.584 1330.73 L1025.31 1332.88 L1065.04 1332.88 L1104.77 1330.73 L1144.5 1326.18 L1184.23 1318.79 L1185.29 1318.6 L1223.96 1310.05 L1263.69 1297.17 L1302.27 1278.87 L1303.42 1278.44 L1343.15 1258.78 L1382.88 1241.37 L1386.66 1239.14 L1422.61 1212.67 L1435.87 1199.41 L1462.34 1163.46 L1464.57 1159.68 L1481.98 1119.95 L1501.64 1080.22 L1502.07 1079.07 L1520.37 1040.49 L1533.25 1000.76 L1541.8 962.088 L1541.99 961.034 L1549.39 921.304 L1553.93 881.574 L1556.08 841.844 L1556.08 802.114 L1553.93 762.384 L1549.39 722.654 L1541.99 682.924 L1541.8 681.869 L1533.25 643.194 L1520.37 603.464 L1502.07 564.889 L1501.64 563.734 L1481.98 524.004 L1464.57 484.274 L1462.34 480.498 L1435.87 444.544 L1422.61 431.284 L1386.66 404.814 L1382.88 402.585 L1343.15 385.181 L1303.42 365.517 L1302.27 365.084 L1263.69 346.791 L1223.96 333.912 L1185.29 325.354 L1184.23 325.168 L1144.5 317.773 L1104.77 313.229 L1065.04 311.082 L1025.31 311.082 L985.584 313.229 L945.854 317.773 L906.124 325.168 L905.07 325.354 L866.394 333.912 L826.664 346.791 L788.09 365.084 L786.934 365.517 L747.204 385.181 L707.474 402.585 L703.698 404.814 L667.744 431.284 L654.484 444.544 L628.014 480.498 L625.786 484.274 L608.381 524.004 L588.718 563.734 L588.284 564.889 L569.992 603.464 L557.112 643.194 L548.554 681.869 L548.368 682.924 L540.973 722.654 L536.43 762.384 L534.282 802.114 L534.282 841.844 L536.43 881.574 L540.973 921.304 L548.368 961.034 L548.554 962.088 L557.112 1000.76 L569.992 1040.49 L588.284 1079.07 L588.718 1080.22 L608.381 1119.95 L625.786 1159.68 L628.014 1163.46 L654.484 1199.41 L667.744 1212.67 L703.698 1239.14 L707.474 1241.37 L747.204 1258.78 L786.934 1278.44 L788.09 1278.87 L826.664 1297.17 L866.394 1310.05 L905.07 1318.6 L906.124 1318.79  Z" fill="#1fa386" fill-rule="evenodd" fill-opacity="1"/>
<path clip-path="url(#clip261)" d="M826.664 1244.29 L866.394 1255.48 L906.124 1263.12 L945.854 1271.02 L985.584 1275.87 L1025.31 1278.16 L1065.04 1278.16 L1104.77 1275.87 L1144.5 1271.02 L1184.23 1263.12 L1223.96 1255.48 L1263.69 1244.29 L1276.53 1239.14 L1303.42 1225.97 L1343.15 1199.57 L1343.43 1199.41 L1382.88 1170.44 L1393.64 1159.68 L1422.61 1120.23 L1422.77 1119.95 L1449.17 1080.22 L1462.34 1053.33 L1467.49 1040.49 L1478.68 1000.76 L1486.32 961.034 L1494.22 921.304 L1499.07 881.574 L1501.36 841.844 L1501.36 802.114 L1499.07 762.384 L1494.22 722.654 L1486.32 682.924 L1478.68 643.194 L1467.49 603.464 L1462.34 590.628 L1449.17 563.734 L1422.77 524.004 L1422.61 523.724 L1393.64 484.274 L1382.88 473.515 L1343.43 444.544 L1343.15 444.387 L1303.42 417.985 L1276.53 404.814 L1263.69 399.668 L1223.96 388.476 L1184.23 380.841 L1144.5 372.943 L1104.77 368.091 L1065.04 365.799 L1025.31 365.799 L985.584 368.091 L945.854 372.943 L906.124 380.841 L866.394 388.476 L826.664 399.668 L813.829 404.814 L786.934 417.985 L747.204 444.387 L746.924 444.544 L707.474 473.515 L696.716 484.274 L667.744 523.724 L667.587 524.004 L641.185 563.734 L628.014 590.628 L622.868 603.464 L611.676 643.194 L604.041 682.924 L596.143 722.654 L591.292 762.384 L588.999 802.114 L588.999 841.844 L591.292 881.574 L596.143 921.304 L604.041 961.034 L611.676 1000.76 L622.868 1040.49 L628.014 1053.33 L641.185 1080.22 L667.587 1119.95 L667.744 1120.23 L696.716 1159.68 L707.474 1170.44 L746.924 1199.41 L747.204 1199.57 L786.934 1225.97 L813.829 1239.14 L826.664 1244.29  Z" fill="#35b778" fill-rule="evenodd" fill-opacity="1"/>
<path clip-path="url(#clip261)" d="M866.394 1203.23 L906.124 1213.32 L945.854 1223.75 L985.584 1230.16 L1025.31 1233.18 L1065.04 1233.18 L1104.77 1230.16 L1144.5 1223.75 L1184.23 1213.32 L1223.96 1203.23 L1234.46 1199.41 L1263.69 1185.74 L1302.06 1159.68 L1303.42 1158.45 L1335.96 1119.95 L1343.15 1112.76 L1381.65 1080.22 L1382.88 1078.86 L1408.94 1040.49 L1422.61 1011.26 L1426.43 1000.76 L1436.52 961.034 L1446.95 921.304 L1453.36 881.574 L1456.38 841.844 L1456.38 802.114 L1453.36 762.384 L1446.95 722.654 L1436.52 682.924 L1426.43 643.194 L1422.61 632.702 L1408.94 603.464 L1382.88 565.095 L1381.65 563.734 L1343.15 531.202 L1335.96 524.004 L1303.42 485.507 L1302.06 484.274 L1263.69 458.219 L1234.46 444.544 L1223.96 440.726 L1184.23 430.641 L1144.5 420.209 L1104.77 413.802 L1065.04 410.775 L1025.31 410.775 L985.584 413.802 L945.854 420.209 L906.124 430.641 L866.394 440.726 L855.903 444.544 L826.664 458.219 L788.296 484.274 L786.934 485.507 L754.402 524.004 L747.204 531.202 L708.707 563.734 L707.474 565.095 L681.42 603.464 L667.744 632.702 L663.926 643.194 L653.842 682.924 L643.409 722.654 L637.003 762.384 L633.976 802.114 L633.976 841.844 L637.003 881.574 L643.409 921.304 L653.842 961.034 L663.926 1000.76 L667.744 1011.26 L681.42 1040.49 L707.474 1078.86 L708.707 1080.22 L747.204 1112.76 L754.402 1119.95 L786.934 1158.45 L788.296 1159.68 L826.664 1185.74 L855.903 1199.41 L866.394 1203.23  Z" fill="#5bc862" fill-rule="evenodd" fill-opacity="1"/>
<path clip-path="url(#clip261)" d="M945.854 1164.06 L985.584 1172.96 L1025.31 1177.17 L1065.04 1177.17 L1104.77 1172.96 L1144.5 1164.06 L1156.69 1159.68 L1184.23 1146.76 L1223.96 1128.86 L1237.71 1119.95 L1263.69 1106.1 L1297.37 1080.22 L1303.42 1074.17 L1329.3 1040.49 L1343.15 1014.51 L1352.06 1000.76 L1369.96 961.034 L1382.88 933.487 L1387.26 921.304 L1396.16 881.574 L1400.37 841.844 L1400.37 802.114 L1396.16 762.384 L1387.26 722.654 L1382.88 710.47 L1369.96 682.924 L1352.06 643.194 L1343.15 629.445 L1329.3 603.464 L1303.42 569.793 L1297.37 563.734 L1263.69 537.859 L1237.71 524.004 L1223.96 515.1 L1184.23 497.198 L1156.69 484.274 L1144.5 479.897 L1104.77 470.997 L1065.04 466.792 L1025.31 466.792 L985.584 470.997 L945.854 479.897 L933.671 484.274 L906.124 497.198 L866.394 515.1 L852.646 524.004 L826.664 537.859 L792.993 563.734 L786.934 569.793 L761.059 603.464 L747.204 629.445 L738.3 643.194 L720.398 682.924 L707.474 710.47 L703.098 722.654 L694.197 762.384 L689.992 802.114 L689.992 841.844 L694.197 881.574 L703.098 921.304 L707.474 933.487 L720.398 961.034 L738.3 1000.76 L747.204 1014.51 L761.059 1040.49 L786.934 1074.17 L792.993 1080.22 L826.664 1106.1 L852.646 1119.95 L866.394 1128.86 L906.124 1146.76 L933.671 1159.68 L945.854 1164.06  Z" fill="#8dd644" fill-rule="evenodd" fill-opacity="1"/>
<path clip-path="url(#clip261)" d="M945.854 1089.16 L985.584 1099.18 L1025.31 1103.91 L1065.04 1103.91 L1104.77 1099.18 L1144.5 1089.16 L1166.49 1080.22 L1184.23 1071.03 L1223.96 1051.36 L1239.22 1040.49 L1263.69 1016.02 L1274.56 1000.76 L1294.23 961.034 L1303.42 943.29 L1312.36 921.304 L1322.38 881.574 L1327.11 841.844 L1327.11 802.114 L1322.38 762.384 L1312.36 722.654 L1303.42 700.668 L1294.23 682.924 L1274.56 643.194 L1263.69 627.936 L1239.22 603.464 L1223.96 592.597 L1184.23 572.93 L1166.49 563.734 L1144.5 554.796 L1104.77 544.781 L1065.04 540.05 L1025.31 540.05 L985.584 544.781 L945.854 554.796 L923.868 563.734 L906.124 572.93 L866.394 592.597 L851.137 603.464 L826.664 627.936 L815.797 643.194 L796.131 682.924 L786.934 700.668 L777.996 722.654 L767.981 762.384 L763.25 802.114 L763.25 841.844 L767.981 881.574 L777.996 921.304 L786.934 943.29 L796.131 961.034 L815.797 1000.76 L826.664 1016.02 L851.137 1040.49 L866.394 1051.36 L906.124 1071.03 L923.868 1080.22 L945.854 1089.16  Z" fill="#c5df21" fill-rule="evenodd" fill-opacity="1"/>
<path clip-path="url(#clip261)" d="M985.584 1014.7 L1025.31 1023.49 L1065.04 1023.49 L1104.77 1014.7 L1134.66 1000.76 L1144.5 994.286 L1175.98 961.034 L1184.23 952.781 L1217.49 921.304 L1223.96 911.464 L1237.9 881.574 L1246.69 841.844 L1246.69 802.114 L1237.9 762.384 L1223.96 732.494 L1217.49 722.654 L1184.23 691.177 L1175.98 682.924 L1144.5 649.672 L1134.66 643.194 L1104.77 629.254 L1065.04 620.471 L1025.31 620.471 L985.584 629.254 L955.694 643.194 L945.854 649.672 L914.377 682.924 L906.124 691.177 L872.872 722.654 L866.394 732.494 L852.454 762.384 L843.671 802.114 L843.671 841.844 L852.454 881.574 L866.394 911.464 L872.872 921.304 L906.124 952.781 L914.377 961.034 L945.854 994.286 L955.694 1000.76 L985.584 1014.7  Z" fill="#fde724" fill-rule="evenodd" fill-opacity="1"/>
<polyline clip-path="url(#clip261)" style="stroke:#000000; stroke-linecap:round; stroke-linejoin:round; stroke-width:0; stroke-opacity:1; fill:none" points="270.444,1596.71 270.444,1596.71 310.174,1596.71 349.904,1596.71 389.634,1596.71 429.364,1596.71 469.094,1596.71 508.824,1596.71 548.554,1596.71 588.284,1596.71 628.014,1596.71 667.744,1596.71 707.474,1596.71 747.204,1596.71 786.934,1596.71 826.664,1596.71 866.394,1596.71 906.124,1596.71 945.854,1596.71 985.584,1596.71 1025.31,1596.71 1065.04,1596.71 1104.77,1596.71 1144.5,1596.71 1184.23,1596.71 1223.96,1596.71 1263.69,1596.71 1303.42,1596.71 1343.15,1596.71 1382.88,1596.71 1422.61,1596.71 1462.34,1596.71 1502.07,1596.71 1541.8,1596.71 1581.53,1596.71 1621.26,1596.71 1660.99,1596.71 1700.72,1596.71 1740.45,1596.71 1780.18,1596.71 1819.91,1596.71 1819.91,1556.98 1819.91,1517.25 1819.91,1477.52 1819.91,1437.79 1819.91,1398.06 1819.91,1358.33 1819.91,1318.6 1819.91,1278.87 1819.91,1239.14 1819.91,1199.41 1819.91,1159.68 1819.91,1119.95 1819.91,1080.22 1819.91,1040.49 1819.91,1000.76 1819.91,961.034 1819.91,921.304 1819.91,881.574 1819.91,841.844 1819.91,802.114 1819.91,762.384 1819.91,722.654 1819.91,682.924 1819.91,643.194 1819.91,603.464 1819.91,563.734 1819.91,524.004 1819.91,484.274 1819.91,444.544 1819.91,404.814 1819.91,365.084 1819.91,325.354 1819.91,285.624 1819.91,245.894 1819.91,206.164 1819.91,166.434 1819.91,126.704 1819.91,86.9741 1819.91,47.2441 1780.18,47.2441 1740.45,47.2441 1700.72,47.2441 1660.99,47.2441 1621.26,47.2441 1581.53,47.2441 1541.8,47.2441 1502.07,47.2441 1462.34,47.2441 1422.61,47.2441 1382.88,47.2441 1343.15,47.2441 1303.42,47.2441 1263.69,47.2441 1223.96,47.2441 1184.23,47.2441 1144.5,47.2441 1104.77,47.2441 1065.04,47.2441 1025.31,47.2441 985.584,47.2441 945.854,47.2441 906.124,47.2441 866.394,47.2441 826.664,47.2441 786.934,47.2441 747.204,47.2441 707.474,47.2441 667.744,47.2441 628.014,47.2441 588.284,47.2441 548.554,47.2441 508.824,47.2441 469.094,47.2441 429.364,47.2441 389.634,47.2441 349.904,47.2441 310.174,47.2441 270.444,47.2441 270.444,86.9741 270.444,126.704 270.444,166.434 270.444,206.164 270.444,245.894 270.444,285.624 270.444,325.354 270.444,365.084 270.444,404.814 270.444,444.544 270.444,484.274 270.444,524.004 270.444,563.734 270.444,603.464 270.444,643.194 270.444,682.924 270.444,722.654 270.444,762.384 270.444,802.114 270.444,841.844 270.444,881.574 270.444,921.304 270.444,961.034 270.444,1000.76 270.444,1040.49 270.444,1080.22 270.444,1119.95 270.444,1159.68 270.444,1199.41 270.444,1239.14 270.444,1278.87 270.444,1318.6 270.444,1358.33 270.444,1398.06 270.444,1437.79 270.444,1477.52 270.444,1517.25 270.444,1556.98 270.444,1596.71 "/>
<polyline clip-path="url(#clip261)" style="stroke:#000000; stroke-linecap:round; stroke-linejoin:round; stroke-width:0; stroke-opacity:1; fill:none" points="985.584,1557.64 1025.31,1557.97 1065.04,1557.97 1104.77,1557.64 1141.36,1556.98 1144.5,1556.94 1184.23,1556.16 1223.96,1555.4 1263.69,1554.28 1303.42,1552.65 1343.15,1550.42 1382.88,1548.45 1422.61,1545.64 1462.34,1541.59 1502.07,1535.88 1541.8,1530.61 1581.53,1522.59 1599.74,1517.25 1621.26,1509.65 1660.99,1484.18 1670.82,1477.52 1700.72,1447.62 1707.38,1437.79 1732.86,1398.06 1740.45,1376.54 1745.79,1358.33 1753.81,1318.6 1759.08,1278.87 1764.79,1239.14 1768.84,1199.41 1771.65,1159.68 1773.62,1119.95 1775.85,1080.22 1777.48,1040.49 1778.6,1000.76 1779.36,961.034 1780.15,921.304 1780.18,918.162 1780.84,881.574 1781.17,841.844 1781.17,802.114 1780.84,762.384 1780.18,725.795 1780.15,722.654 1779.36,682.924 1778.6,643.194 1777.48,603.464 1775.85,563.734 1773.62,524.004 1771.65,484.274 1768.84,444.544 1764.79,404.814 1759.08,365.084 1753.81,325.354 1745.79,285.624 1740.45,267.418 1732.86,245.894 1707.38,206.164 1700.72,196.342 1670.82,166.434 1660.99,159.777 1621.26,134.303 1599.74,126.704 1581.53,121.364 1541.8,113.352 1502.07,108.082 1462.34,102.364 1422.61,98.3181 1382.88,95.5116 1343.15,93.5397 1303.42,91.3058 1263.69,89.6763 1223.96,88.562 1184.23,87.8011 1144.5,87.0129 1141.36,86.9741 1104.77,86.3213 1065.04,85.9858 1025.31,85.9858 985.584,86.3213 948.996,86.9741 945.854,87.0129 906.124,87.8011 866.394,88.562 826.664,89.6763 786.934,91.3058 747.204,93.5397 707.474,95.5116 667.744,98.3181 628.014,102.364 588.284,108.082 548.554,113.352 508.824,121.364 490.618,126.704 469.094,134.303 429.364,159.777 419.543,166.434 389.634,196.342 382.977,206.164 357.503,245.894 349.904,267.418 344.565,285.624 336.553,325.354 331.282,365.084 325.565,404.814 321.518,444.544 318.712,484.274 316.74,524.004 314.506,563.734 312.877,603.464 311.762,643.194 311.001,682.924 310.213,722.654 310.174,725.795 309.522,762.384 309.186,802.114 309.186,841.844 309.522,881.574 310.174,918.162 310.213,921.304 311.001,961.034 311.762,1000.76 312.877,1040.49 314.506,1080.22 316.74,1119.95 318.712,1159.68 321.518,1199.41 325.565,1239.14 331.282,1278.87 336.553,1318.6 344.565,1358.33 349.904,1376.54 357.503,1398.06 382.977,1437.79 389.634,1447.62 419.543,1477.52 429.364,1484.18 469.094,1509.65 490.618,1517.25 508.824,1522.59 548.554,1530.61 588.284,1535.88 628.014,1541.59 667.744,1545.64 707.474,1548.45 747.204,1550.42 786.934,1552.65 826.664,1554.28 866.394,1555.4 906.124,1556.16 945.854,1556.94 948.996,1556.98 985.584,1557.64 "/>
<polyline clip-path="url(#clip261)" style="stroke:#000000; stroke-linecap:round; stroke-linejoin:round; stroke-width:0; stroke-opacity:1; fill:none" points="866.394,1517.45 906.124,1518.97 945.854,1520.55 985.584,1521.52 1025.31,1521.98 1065.04,1521.98 1104.77,1521.52 1144.5,1520.55 1184.23,1518.97 1223.96,1517.45 1227.62,1517.25 1263.69,1515.19 1303.42,1511.88 1343.15,1507.34 1382.88,1503.32 1422.61,1497.61 1462.34,1489.38 1502.07,1477.73 1502.92,1477.52 1541.8,1465.58 1581.53,1447.05 1595.42,1437.79 1621.26,1422.18 1645.38,1398.06 1660.99,1372.22 1670.25,1358.33 1688.79,1318.6 1700.72,1279.72 1700.93,1278.87 1712.58,1239.14 1720.81,1199.41 1726.52,1159.68 1730.54,1119.95 1735.08,1080.22 1738.39,1040.49 1740.45,1004.42 1740.65,1000.76 1742.17,961.034 1743.75,921.304 1744.72,881.574 1745.18,841.844 1745.18,802.114 1744.72,762.384 1743.75,722.654 1742.17,682.924 1740.65,643.194 1740.45,639.536 1738.39,603.464 1735.08,563.734 1730.54,524.004 1726.52,484.274 1720.81,444.544 1712.58,404.814 1700.93,365.084 1700.72,364.235 1688.79,325.354 1670.25,285.624 1660.99,271.736 1645.38,245.894 1621.26,221.775 1595.42,206.164 1581.53,196.904 1541.8,178.373 1502.92,166.434 1502.07,166.223 1462.34,154.58 1422.61,146.344 1382.88,140.634 1343.15,136.622 1303.42,132.079 1263.69,128.766 1227.62,126.704 1223.96,126.504 1184.23,124.984 1144.5,123.408 1104.77,122.439 1065.04,121.981 1025.31,121.981 985.584,122.439 945.854,123.408 906.124,124.984 866.394,126.504 862.737,126.704 826.664,128.766 786.934,132.079 747.204,136.622 707.474,140.634 667.744,146.344 628.014,154.58 588.284,166.223 587.435,166.434 548.554,178.373 508.824,196.904 494.936,206.164 469.094,221.775 444.975,245.894 429.364,271.736 420.105,285.624 401.573,325.354 389.634,364.235 389.424,365.084 377.78,404.814 369.545,444.544 363.834,484.274 359.823,524.004 355.279,563.734 351.966,603.464 349.904,639.536 349.705,643.194 348.184,682.924 346.609,722.654 345.64,762.384 345.182,802.114 345.182,841.844 345.64,881.574 346.609,921.304 348.184,961.034 349.705,1000.76 349.904,1004.42 351.966,1040.49 355.279,1080.22 359.823,1119.95 363.834,1159.68 369.545,1199.41 377.78,1239.14 389.424,1278.87 389.634,1279.72 401.573,1318.6 420.105,1358.33 429.364,1372.22 444.975,1398.06 469.094,1422.18 494.936,1437.79 508.824,1447.05 548.554,1465.58 587.435,1477.52 588.284,1477.73 628.014,1489.38 667.744,1497.61 707.474,1503.32 747.204,1507.34 786.934,1511.88 826.664,1515.19 862.737,1517.25 866.394,1517.45 "/>
<polyline clip-path="url(#clip261)" style="stroke:#000000; stroke-linecap:round; stroke-linejoin:round; stroke-width:0; stroke-opacity:1; fill:none" points="866.394,1478.87 906.124,1481.19 945.854,1483.59 985.584,1485.07 1025.31,1485.77 1065.04,1485.77 1104.77,1485.07 1144.5,1483.59 1184.23,1481.19 1223.96,1478.87 1239.91,1477.52 1263.69,1475.19 1303.42,1469.56 1343.15,1461.84 1382.88,1455.02 1422.61,1445.3 1444.7,1437.79 1462.34,1432.81 1502.07,1417.62 1541.8,1403.6 1553.05,1398.06 1581.53,1377.96 1601.16,1358.33 1621.26,1329.85 1626.8,1318.6 1640.82,1278.87 1656.01,1239.14 1660.99,1221.5 1668.5,1199.41 1678.22,1159.68 1685.04,1119.95 1692.76,1080.22 1698.39,1040.49 1700.72,1016.71 1702.07,1000.76 1704.39,961.034 1706.79,921.304 1708.27,881.574 1708.97,841.844 1708.97,802.114 1708.27,762.384 1706.79,722.654 1704.39,682.924 1702.07,643.194 1700.72,627.245 1698.39,603.464 1692.76,563.734 1685.04,524.004 1678.22,484.274 1668.5,444.544 1660.99,422.462 1656.01,404.814 1640.82,365.084 1626.8,325.354 1621.26,314.107 1601.16,285.624 1581.53,265.998 1553.05,245.894 1541.8,240.363 1502.07,226.338 1462.34,211.148 1444.7,206.164 1422.61,198.658 1382.88,188.943 1343.15,182.12 1303.42,174.395 1263.69,168.765 1239.91,166.434 1223.96,165.092 1184.23,162.77 1144.5,160.365 1104.77,158.885 1065.04,158.186 1025.31,158.186 985.584,158.885 945.854,160.365 906.124,162.77 866.394,165.092 850.446,166.434 826.664,168.765 786.934,174.395 747.204,182.12 707.474,188.943 667.744,198.658 645.663,206.164 628.014,211.148 588.284,226.338 548.554,240.363 537.308,245.894 508.824,265.998 489.198,285.624 469.094,314.107 463.563,325.354 449.538,365.084 434.348,404.814 429.364,422.462 421.858,444.544 412.143,484.274 405.32,524.004 397.596,563.734 391.965,603.464 389.634,627.245 388.293,643.194 385.97,682.924 383.565,722.654 382.086,762.384 381.386,802.114 381.386,841.844 382.086,881.574 383.565,921.304 385.97,961.034 388.293,1000.76 389.634,1016.71 391.965,1040.49 397.596,1080.22 405.32,1119.95 412.143,1159.68 421.858,1199.41 429.364,1221.5 434.348,1239.14 449.538,1278.87 463.563,1318.6 469.094,1329.85 489.198,1358.33 508.824,1377.96 537.308,1398.06 548.554,1403.6 588.284,1417.62 628.014,1432.81 645.663,1437.79 667.744,1445.3 707.474,1455.02 747.204,1461.84 786.934,1469.56 826.664,1475.19 850.446,1477.52 866.394,1478.87 "/>
<polyline clip-path="url(#clip261)" style="stroke:#000000; stroke-linecap:round; stroke-linejoin:round; stroke-width:0; stroke-opacity:1; fill:none" points="906.124,1438.88 945.854,1442.52 985.584,1444.75 1025.31,1445.81 1065.04,1445.81 1104.77,1444.75 1144.5,1442.52 1184.23,1438.88 1196.73,1437.79 1223.96,1435.94 1263.69,1432.01 1303.42,1426.26 1343.15,1418.37 1382.88,1411.4 1422.61,1401.47 1432.65,1398.06 1462.34,1384.19 1502.07,1358.4 1502.2,1358.33 1541.8,1329.91 1553.11,1318.6 1581.53,1279 1581.6,1278.87 1607.39,1239.14 1621.26,1209.45 1624.67,1199.41 1634.6,1159.68 1641.57,1119.95 1649.46,1080.22 1655.21,1040.49 1659.14,1000.76 1660.99,973.533 1662.08,961.034 1665.72,921.304 1667.95,881.574 1669.01,841.844 1669.01,802.114 1667.95,762.384 1665.72,722.654 1662.08,682.924 1660.99,670.425 1659.14,643.194 1655.21,603.464 1649.46,563.734 1641.57,524.004 1634.6,484.274 1624.67,444.544 1621.26,434.504 1607.39,404.814 1581.6,365.084 1581.53,364.958 1553.11,325.354 1541.8,314.043 1502.2,285.624 1502.07,285.555 1462.34,259.77 1432.65,245.894 1422.61,242.49 1382.88,232.557 1343.15,225.584 1303.42,217.693 1263.69,211.943 1223.96,208.014 1196.73,206.164 1184.23,205.075 1144.5,201.441 1104.77,199.206 1065.04,198.15 1025.31,198.15 985.584,199.206 945.854,201.441 906.124,205.075 893.625,206.164 866.394,208.014 826.664,211.943 786.934,217.693 747.204,225.584 707.474,232.557 667.744,242.49 657.704,245.894 628.014,259.77 588.284,285.555 588.158,285.624 548.554,314.043 537.243,325.354 508.824,364.958 508.755,365.084 482.971,404.814 469.094,434.504 465.69,444.544 455.758,484.274 448.785,524.004 440.893,563.734 435.144,603.464 431.214,643.194 429.364,670.425 428.276,682.924 424.641,722.654 422.407,762.384 421.35,802.114 421.35,841.844 422.407,881.574 424.641,921.304 428.276,961.034 429.364,973.533 431.214,1000.76 435.144,1040.49 440.893,1080.22 448.785,1119.95 455.758,1159.68 465.69,1199.41 469.094,1209.45 482.971,1239.14 508.755,1278.87 508.824,1279 537.243,1318.6 548.554,1329.91 588.158,1358.33 588.284,1358.4 628.014,1384.19 657.704,1398.06 667.744,1401.47 707.474,1411.4 747.204,1418.37 786.934,1426.26 826.664,1432.01 866.394,1435.94 893.625,1437.79 906.124,1438.88 "/>
<polyline clip-path="url(#clip261)" style="stroke:#000000; stroke-linecap:round; stroke-linejoin:round; stroke-width:0; stroke-opacity:1; fill:none" points="866.394,1402.57 906.124,1405.93 945.854,1409.41 985.584,1411.55 1025.31,1412.56 1065.04,1412.56 1104.77,1411.55 1144.5,1409.41 1184.23,1405.93 1223.96,1402.57 1260.43,1398.06 1263.69,1397.54 1303.42,1388.41 1343.15,1375.87 1382.88,1364.79 1399.73,1358.33 1422.61,1347.18 1462.34,1319.92 1463.85,1318.6 1497.31,1278.87 1502.07,1274.11 1541.8,1240.65 1543.12,1239.14 1570.38,1199.41 1581.53,1176.53 1587.99,1159.68 1599.07,1119.95 1611.61,1080.22 1620.74,1040.49 1621.26,1037.23 1625.77,1000.76 1629.13,961.034 1632.61,921.304 1634.75,881.574 1635.76,841.844 1635.76,802.114 1634.75,762.384 1632.61,722.654 1629.13,682.924 1625.77,643.194 1621.26,606.724 1620.74,603.464 1611.61,563.734 1599.07,524.004 1587.99,484.274 1581.53,467.43 1570.38,444.544 1543.12,404.814 1541.8,403.31 1502.07,369.85 1497.31,365.084 1463.85,325.354 1462.34,324.034 1422.61,296.774 1399.73,285.624 1382.88,279.166 1343.15,268.084 1303.42,255.549 1263.69,246.42 1260.43,245.894 1223.96,241.387 1184.23,238.028 1144.5,234.549 1104.77,232.411 1065.04,231.4 1025.31,231.4 985.584,232.411 945.854,234.549 906.124,238.028 866.394,241.387 829.925,245.894 826.664,246.42 786.934,255.549 747.204,268.084 707.474,279.166 690.63,285.624 667.744,296.774 628.014,324.034 626.51,325.354 593.05,365.084 588.284,369.85 548.554,403.31 547.234,404.814 519.975,444.544 508.824,467.43 502.366,484.274 491.285,524.004 478.749,563.734 469.62,603.464 469.094,606.724 464.588,643.194 461.228,682.924 457.749,722.654 455.611,762.384 454.6,802.114 454.6,841.844 455.611,881.574 457.749,921.304 461.228,961.034 464.588,1000.76 469.094,1037.23 469.62,1040.49 478.749,1080.22 491.285,1119.95 502.366,1159.68 508.824,1176.53 519.975,1199.41 547.234,1239.14 548.554,1240.65 588.284,1274.11 593.05,1278.87 626.51,1318.6 628.014,1319.92 667.744,1347.18 690.63,1358.33 707.474,1364.79 747.204,1375.87 786.934,1388.41 826.664,1397.54 829.925,1398.06 866.394,1402.57 "/>
<polyline clip-path="url(#clip261)" style="stroke:#000000; stroke-linecap:round; stroke-linejoin:round; stroke-width:0; stroke-opacity:1; fill:none" points="866.394,1361.49 906.124,1366.61 945.854,1371.91 985.584,1375.16 1025.31,1376.7 1065.04,1376.7 1104.77,1375.16 1144.5,1371.91 1184.23,1366.61 1223.96,1361.49 1240.94,1358.33 1263.69,1353.14 1303.42,1340.04 1343.15,1322.03 1352.01,1318.6 1382.88,1303.22 1417.75,1278.87 1422.61,1276.13 1462.34,1245.47 1468.67,1239.14 1499.33,1199.41 1502.07,1194.55 1526.42,1159.68 1541.8,1128.81 1545.23,1119.95 1563.24,1080.22 1576.34,1040.49 1581.53,1017.74 1584.69,1000.76 1589.81,961.034 1595.11,921.304 1598.36,881.574 1599.9,841.844 1599.9,802.114 1598.36,762.384 1595.11,722.654 1589.81,682.924 1584.69,643.194 1581.53,626.218 1576.34,603.464 1563.24,563.734 1545.23,524.004 1541.8,515.147 1526.42,484.274 1502.07,449.405 1499.33,444.544 1468.67,404.814 1462.34,398.493 1422.61,367.825 1417.75,365.084 1382.88,340.741 1352.01,325.354 1343.15,321.929 1303.42,303.922 1263.69,290.815 1240.94,285.624 1223.96,282.473 1184.23,277.352 1144.5,272.052 1104.77,268.794 1065.04,267.254 1025.31,267.254 985.584,268.794 945.854,272.052 906.124,277.352 866.394,282.473 849.419,285.624 826.664,290.815 786.934,303.922 747.204,321.929 738.347,325.354 707.474,340.741 672.605,365.084 667.744,367.825 628.014,398.493 621.693,404.814 591.025,444.544 588.284,449.405 563.941,484.274 548.554,515.147 545.129,524.004 527.122,563.734 514.015,603.464 508.824,626.218 505.673,643.194 500.553,682.924 495.252,722.654 491.995,762.384 490.455,802.114 490.455,841.844 491.995,881.574 495.252,921.304 500.553,961.034 505.673,1000.76 508.824,1017.74 514.015,1040.49 527.122,1080.22 545.129,1119.95 548.554,1128.81 563.941,1159.68 588.284,1194.55 591.025,1199.41 621.693,1239.14 628.014,1245.47 667.744,1276.13 672.605,1278.87 707.474,1303.22 738.347,1318.6 747.204,1322.03 786.934,1340.04 826.664,1353.14 849.419,1358.33 866.394,1361.49 "/>
<polyline clip-path="url(#clip261)" style="stroke:#000000; stroke-linecap:round; stroke-linejoin:round; stroke-width:0; stroke-opacity:1; fill:none" points="906.124,1318.79 945.854,1326.18 985.584,1330.73 1025.31,1332.88 1065.04,1332.88 1104.77,1330.73 1144.5,1326.18 1184.23,1318.79 1185.29,1318.6 1223.96,1310.05 1263.69,1297.17 1302.27,1278.87 1303.42,1278.44 1343.15,1258.78 1382.88,1241.37 1386.66,1239.14 1422.61,1212.67 1435.87,1199.41 1462.34,1163.46 1464.57,1159.68 1481.98,1119.95 1501.64,1080.22 1502.07,1079.07 1520.37,1040.49 1533.25,1000.76 1541.8,962.088 1541.99,961.034 1549.39,921.304 1553.93,881.574 1556.08,841.844 1556.08,802.114 1553.93,762.384 1549.39,722.654 1541.99,682.924 1541.8,681.869 1533.25,643.194 1520.37,603.464 1502.07,564.889 1501.64,563.734 1481.98,524.004 1464.57,484.274 1462.34,480.498 1435.87,444.544 1422.61,431.284 1386.66,404.814 1382.88,402.585 1343.15,385.181 1303.42,365.517 1302.27,365.084 1263.69,346.791 1223.96,333.912 1185.29,325.354 1184.23,325.168 1144.5,317.773 1104.77,313.229 1065.04,311.082 1025.31,311.082 985.584,313.229 945.854,317.773 906.124,325.168 905.07,325.354 866.394,333.912 826.664,346.791 788.09,365.084 786.934,365.517 747.204,385.181 707.474,402.585 703.698,404.814 667.744,431.284 654.484,444.544 628.014,480.498 625.786,484.274 608.381,524.004 588.718,563.734 588.284,564.889 569.992,603.464 557.112,643.194 548.554,681.869 548.368,682.924 540.973,722.654 536.43,762.384 534.282,802.114 534.282,841.844 536.43,881.574 540.973,921.304 548.368,961.034 548.554,962.088 557.112,1000.76 569.992,1040.49 588.284,1079.07 588.718,1080.22 608.381,1119.95 625.786,1159.68 628.014,1163.46 654.484,1199.41 667.744,1212.67 703.698,1239.14 707.474,1241.37 747.204,1258.78 786.934,1278.44 788.09,1278.87 826.664,1297.17 866.394,1310.05 905.07,1318.6 906.124,1318.79 "/>
<polyline clip-path="url(#clip261)" style="stroke:#000000; stroke-linecap:round; stroke-linejoin:round; stroke-width:0; stroke-opacity:1; fill:none" points="826.664,1244.29 866.394,1255.48 906.124,1263.12 945.854,1271.02 985.584,1275.87 1025.31,1278.16 1065.04,1278.16 1104.77,1275.87 1144.5,1271.02 1184.23,1263.12 1223.96,1255.48 1263.69,1244.29 1276.53,1239.14 1303.42,1225.97 1343.15,1199.57 1343.43,1199.41 1382.88,1170.44 1393.64,1159.68 1422.61,1120.23 1422.77,1119.95 1449.17,1080.22 1462.34,1053.33 1467.49,1040.49 1478.68,1000.76 1486.32,961.034 1494.22,921.304 1499.07,881.574 1501.36,841.844 1501.36,802.114 1499.07,762.384 1494.22,722.654 1486.32,682.924 1478.68,643.194 1467.49,603.464 1462.34,590.628 1449.17,563.734 1422.77,524.004 1422.61,523.724 1393.64,484.274 1382.88,473.515 1343.43,444.544 1343.15,444.387 1303.42,417.985 1276.53,404.814 1263.69,399.668 1223.96,388.476 1184.23,380.841 1144.5,372.943 1104.77,368.091 1065.04,365.799 1025.31,365.799 985.584,368.091 945.854,372.943 906.124,380.841 866.394,388.476 826.664,399.668 813.829,404.814 786.934,417.985 747.204,444.387 746.924,444.544 707.474,473.515 696.716,484.274 667.744,523.724 667.587,524.004 641.185,563.734 628.014,590.628 622.868,603.464 611.676,643.194 604.041,682.924 596.143,722.654 591.292,762.384 588.999,802.114 588.999,841.844 591.292,881.574 596.143,921.304 604.041,961.034 611.676,1000.76 622.868,1040.49 628.014,1053.33 641.185,1080.22 667.587,1119.95 667.744,1120.23 696.716,1159.68 707.474,1170.44 746.924,1199.41 747.204,1199.57 786.934,1225.97 813.829,1239.14 826.664,1244.29 "/>
<polyline clip-path="url(#clip261)" style="stroke:#000000; stroke-linecap:round; stroke-linejoin:round; stroke-width:0; stroke-opacity:1; fill:none" points="866.394,1203.23 906.124,1213.32 945.854,1223.75 985.584,1230.16 1025.31,1233.18 1065.04,1233.18 1104.77,1230.16 1144.5,1223.75 1184.23,1213.32 1223.96,1203.23 1234.46,1199.41 1263.69,1185.74 1302.06,1159.68 1303.42,1158.45 1335.96,1119.95 1343.15,1112.76 1381.65,1080.22 1382.88,1078.86 1408.94,1040.49 1422.61,1011.26 1426.43,1000.76 1436.52,961.034 1446.95,921.304 1453.36,881.574 1456.38,841.844 1456.38,802.114 1453.36,762.384 1446.95,722.654 1436.52,682.924 1426.43,643.194 1422.61,632.702 1408.94,603.464 1382.88,565.095 1381.65,563.734 1343.15,531.202 1335.96,524.004 1303.42,485.507 1302.06,484.274 1263.69,458.219 1234.46,444.544 1223.96,440.726 1184.23,430.641 1144.5,420.209 1104.77,413.802 1065.04,410.775 1025.31,410.775 985.584,413.802 945.854,420.209 906.124,430.641 866.394,440.726 855.903,444.544 826.664,458.219 788.296,484.274 786.934,485.507 754.402,524.004 747.204,531.202 708.707,563.734 707.474,565.095 681.42,603.464 667.744,632.702 663.926,643.194 653.842,682.924 643.409,722.654 637.003,762.384 633.976,802.114 633.976,841.844 637.003,881.574 643.409,921.304 653.842,961.034 663.926,1000.76 667.744,1011.26 681.42,1040.49 707.474,1078.86 708.707,1080.22 747.204,1112.76 754.402,1119.95 786.934,1158.45 788.296,1159.68 826.664,1185.74 855.903,1199.41 866.394,1203.23 "/>
<polyline clip-path="url(#clip261)" style="stroke:#000000; stroke-linecap:round; stroke-linejoin:round; stroke-width:0; stroke-opacity:1; fill:none" points="945.854,1164.06 985.584,1172.96 1025.31,1177.17 1065.04,1177.17 1104.77,1172.96 1144.5,1164.06 1156.69,1159.68 1184.23,1146.76 1223.96,1128.86 1237.71,1119.95 1263.69,1106.1 1297.37,1080.22 1303.42,1074.17 1329.3,1040.49 1343.15,1014.51 1352.06,1000.76 1369.96,961.034 1382.88,933.487 1387.26,921.304 1396.16,881.574 1400.37,841.844 1400.37,802.114 1396.16,762.384 1387.26,722.654 1382.88,710.47 1369.96,682.924 1352.06,643.194 1343.15,629.445 1329.3,603.464 1303.42,569.793 1297.37,563.734 1263.69,537.859 1237.71,524.004 1223.96,515.1 1184.23,497.198 1156.69,484.274 1144.5,479.897 1104.77,470.997 1065.04,466.792 1025.31,466.792 985.584,470.997 945.854,479.897 933.671,484.274 906.124,497.198 866.394,515.1 852.646,524.004 826.664,537.859 792.993,563.734 786.934,569.793 761.059,603.464 747.204,629.445 738.3,643.194 720.398,682.924 707.474,710.47 703.098,722.654 694.197,762.384 689.992,802.114 689.992,841.844 694.197,881.574 703.098,921.304 707.474,933.487 720.398,961.034 738.3,1000.76 747.204,1014.51 761.059,1040.49 786.934,1074.17 792.993,1080.22 826.664,1106.1 852.646,1119.95 866.394,1128.86 906.124,1146.76 933.671,1159.68 945.854,1164.06 "/>
<polyline clip-path="url(#clip261)" style="stroke:#000000; stroke-linecap:round; stroke-linejoin:round; stroke-width:0; stroke-opacity:1; fill:none" points="945.854,1089.16 985.584,1099.18 1025.31,1103.91 1065.04,1103.91 1104.77,1099.18 1144.5,1089.16 1166.49,1080.22 1184.23,1071.03 1223.96,1051.36 1239.22,1040.49 1263.69,1016.02 1274.56,1000.76 1294.23,961.034 1303.42,943.29 1312.36,921.304 1322.38,881.574 1327.11,841.844 1327.11,802.114 1322.38,762.384 1312.36,722.654 1303.42,700.668 1294.23,682.924 1274.56,643.194 1263.69,627.936 1239.22,603.464 1223.96,592.597 1184.23,572.93 1166.49,563.734 1144.5,554.796 1104.77,544.781 1065.04,540.05 1025.31,540.05 985.584,544.781 945.854,554.796 923.868,563.734 906.124,572.93 866.394,592.597 851.137,603.464 826.664,627.936 815.797,643.194 796.131,682.924 786.934,700.668 777.996,722.654 767.981,762.384 763.25,802.114 763.25,841.844 767.981,881.574 777.996,921.304 786.934,943.29 796.131,961.034 815.797,1000.76 826.664,1016.02 851.137,1040.49 866.394,1051.36 906.124,1071.03 923.868,1080.22 945.854,1089.16 "/>
<polyline clip-path="url(#clip261)" style="stroke:#000000; stroke-linecap:round; stroke-linejoin:round; stroke-width:0; stroke-opacity:1; fill:none" points="985.584,1014.7 1025.31,1023.49 1065.04,1023.49 1104.77,1014.7 1134.66,1000.76 1144.5,994.286 1175.98,961.034 1184.23,952.781 1217.49,921.304 1223.96,911.464 1237.9,881.574 1246.69,841.844 1246.69,802.114 1237.9,762.384 1223.96,732.494 1217.49,722.654 1184.23,691.177 1175.98,682.924 1144.5,649.672 1134.66,643.194 1104.77,629.254 1065.04,620.471 1025.31,620.471 985.584,629.254 955.694,643.194 945.854,649.672 914.377,682.924 906.124,691.177 872.872,722.654 866.394,732.494 852.454,762.384 843.671,802.114 843.671,841.844 852.454,881.574 866.394,911.464 872.872,921.304 906.124,952.781 914.377,961.034 945.854,994.286 955.694,1000.76 985.584,1014.7 "/>
</svg>
